<?xml version="1.0" encoding="utf-8"?>
<!-- Generator: Adobe Illustrator 27.5.0, SVG Export Plug-In . SVG Version: 6.00 Build 0)  -->
<svg version="1.1" xmlns="http://www.w3.org/2000/svg" xmlns:xlink="http://www.w3.org/1999/xlink" x="0px" y="0px"
	 viewBox="0 0 799.92 799.92" style="enable-background:new 0 0 799.92 799.92;" xml:space="preserve">
<g id="Background">
	<g>
		<rect style="fill-rule:evenodd;clip-rule:evenodd;fill:#F0DFAF;" width="799.92" height="799.92"/>
		<circle style="fill-rule:evenodd;clip-rule:evenodd;fill:#F0DFAF;" cx="399.96" cy="390.306" r="390.307"/>
		<g>
			<circle style="fill-rule:evenodd;clip-rule:evenodd;fill:#F0DFAF;" cx="399.96" cy="390.306" r="388.865"/>
			<circle style="fill-rule:evenodd;clip-rule:evenodd;fill:#F0DFB0;" cx="399.96" cy="390.306" r="387.424"/>
			
				<ellipse transform="matrix(0.7071 -0.7071 0.7071 0.7071 -158.8421 397.1324)" style="fill-rule:evenodd;clip-rule:evenodd;fill:#F0E0B0;" cx="399.96" cy="390.306" rx="385.982" ry="385.982"/>
			
				<ellipse transform="matrix(0.7071 -0.7071 0.7071 0.7071 -158.8421 397.1324)" style="fill-rule:evenodd;clip-rule:evenodd;fill:#F0E0B1;" cx="399.96" cy="390.306" rx="384.541" ry="384.541"/>
			
				<ellipse transform="matrix(0.7071 -0.7071 0.7071 0.7071 -158.8421 397.1324)" style="fill-rule:evenodd;clip-rule:evenodd;fill:#F0E0B1;" cx="399.96" cy="390.306" rx="383.099" ry="383.1"/>
			<circle style="fill-rule:evenodd;clip-rule:evenodd;fill:#F1E0B1;" cx="399.96" cy="390.306" r="381.658"/>
			<circle style="fill-rule:evenodd;clip-rule:evenodd;fill:#F1E0B2;" cx="399.96" cy="390.306" r="380.216"/>
			<circle style="fill-rule:evenodd;clip-rule:evenodd;fill:#F1E0B2;" cx="399.96" cy="390.306" r="378.775"/>
			<circle style="fill-rule:evenodd;clip-rule:evenodd;fill:#F1E1B2;" cx="399.96" cy="390.306" r="377.333"/>
			<circle style="fill-rule:evenodd;clip-rule:evenodd;fill:#F1E1B3;" cx="399.96" cy="390.306" r="375.892"/>
			<circle style="fill-rule:evenodd;clip-rule:evenodd;fill:#F1E1B3;" cx="399.96" cy="390.306" r="374.45"/>
			<circle style="fill-rule:evenodd;clip-rule:evenodd;fill:#F1E1B4;" cx="399.96" cy="390.306" r="373.009"/>
			<circle style="fill-rule:evenodd;clip-rule:evenodd;fill:#F1E1B4;" cx="399.96" cy="390.306" r="371.567"/>
			<circle style="fill-rule:evenodd;clip-rule:evenodd;fill:#F1E1B4;" cx="399.96" cy="390.306" r="370.126"/>
			<circle style="fill-rule:evenodd;clip-rule:evenodd;fill:#F1E2B5;" cx="399.96" cy="390.306" r="368.685"/>
			<circle style="fill-rule:evenodd;clip-rule:evenodd;fill:#F2E2B5;" cx="399.96" cy="390.306" r="367.243"/>
			<circle style="fill-rule:evenodd;clip-rule:evenodd;fill:#F2E2B6;" cx="399.96" cy="390.306" r="365.802"/>
			<circle style="fill-rule:evenodd;clip-rule:evenodd;fill:#F2E2B6;" cx="399.96" cy="390.306" r="364.36"/>
			<circle style="fill-rule:evenodd;clip-rule:evenodd;fill:#F2E2B6;" cx="399.96" cy="390.306" r="362.919"/>
			<circle style="fill-rule:evenodd;clip-rule:evenodd;fill:#F2E2B7;" cx="399.96" cy="390.306" r="361.478"/>
			<circle style="fill-rule:evenodd;clip-rule:evenodd;fill:#F2E3B7;" cx="399.96" cy="390.306" r="360.036"/>
			<circle style="fill-rule:evenodd;clip-rule:evenodd;fill:#F2E3B7;" cx="399.96" cy="390.306" r="358.595"/>
			<circle style="fill-rule:evenodd;clip-rule:evenodd;fill:#F2E3B8;" cx="399.96" cy="390.306" r="357.153"/>
			<circle style="fill-rule:evenodd;clip-rule:evenodd;fill:#F2E3B8;" cx="399.96" cy="390.306" r="355.712"/>
			<circle style="fill-rule:evenodd;clip-rule:evenodd;fill:#F2E3B9;" cx="399.96" cy="390.306" r="354.27"/>
			<circle style="fill-rule:evenodd;clip-rule:evenodd;fill:#F3E3B9;" cx="399.96" cy="390.306" r="352.829"/>
			<circle style="fill-rule:evenodd;clip-rule:evenodd;fill:#F3E4B9;" cx="399.96" cy="390.306" r="351.388"/>
			<circle style="fill-rule:evenodd;clip-rule:evenodd;fill:#F3E4BA;" cx="399.96" cy="390.306" r="349.946"/>
			<circle style="fill-rule:evenodd;clip-rule:evenodd;fill:#F3E4BA;" cx="399.96" cy="390.306" r="348.505"/>
			
				<ellipse transform="matrix(0.7071 -0.7071 0.7071 0.7071 -158.8423 397.1325)" style="fill-rule:evenodd;clip-rule:evenodd;fill:#F3E4BB;" cx="399.96" cy="390.306" rx="347.063" ry="347.063"/>
			
				<ellipse transform="matrix(0.7071 -0.7071 0.7071 0.7071 -158.8423 397.1325)" style="fill-rule:evenodd;clip-rule:evenodd;fill:#F3E4BB;" cx="399.96" cy="390.306" rx="345.622" ry="345.622"/>
			
				<ellipse transform="matrix(0.7071 -0.7071 0.7071 0.7071 -158.8423 397.1325)" style="fill-rule:evenodd;clip-rule:evenodd;fill:#F3E5BB;" cx="399.96" cy="390.306" rx="344.18" ry="344.181"/>
			
				<ellipse transform="matrix(0.7071 -0.7071 0.7071 0.7071 -158.8423 397.1325)" style="fill-rule:evenodd;clip-rule:evenodd;fill:#F3E5BC;" cx="399.96" cy="390.306" rx="342.739" ry="342.739"/>
			
				<ellipse transform="matrix(0.7071 -0.7071 0.7071 0.7071 -158.8423 397.1325)" style="fill-rule:evenodd;clip-rule:evenodd;fill:#F3E5BC;" cx="399.96" cy="390.306" rx="341.297" ry="341.298"/>
			
				<ellipse transform="matrix(0.7071 -0.7071 0.7071 0.7071 -158.8421 397.1324)" style="fill-rule:evenodd;clip-rule:evenodd;fill:#F3E5BC;" cx="399.96" cy="390.306" rx="339.856" ry="339.856"/>
			
				<ellipse transform="matrix(0.7071 -0.7071 0.7071 0.7071 -158.8421 397.1324)" style="fill-rule:evenodd;clip-rule:evenodd;fill:#F4E5BD;" cx="399.96" cy="390.306" rx="338.414" ry="338.415"/>
			
				<ellipse transform="matrix(0.7071 -0.7071 0.7071 0.7071 -158.8423 397.1325)" style="fill-rule:evenodd;clip-rule:evenodd;fill:#F4E5BD;" cx="399.96" cy="390.306" rx="336.973" ry="336.974"/>
			
				<ellipse transform="matrix(0.7071 -0.7071 0.7071 0.7071 -158.8423 397.1325)" style="fill-rule:evenodd;clip-rule:evenodd;fill:#F4E6BE;" cx="399.96" cy="390.306" rx="335.532" ry="335.532"/>
			<circle style="fill-rule:evenodd;clip-rule:evenodd;fill:#F4E6BE;" cx="399.96" cy="390.306" r="334.09"/>
			
				<ellipse transform="matrix(0.7071 -0.7071 0.7071 0.7071 -158.8423 397.1325)" style="fill-rule:evenodd;clip-rule:evenodd;fill:#F4E6BE;" cx="399.96" cy="390.306" rx="332.649" ry="332.649"/>
			<circle style="fill-rule:evenodd;clip-rule:evenodd;fill:#F4E6BF;" cx="399.96" cy="390.306" r="331.207"/>
			<circle style="fill-rule:evenodd;clip-rule:evenodd;fill:#F4E6BF;" cx="399.96" cy="390.306" r="329.766"/>
			<circle style="fill-rule:evenodd;clip-rule:evenodd;fill:#F4E6C0;" cx="399.96" cy="390.306" r="328.324"/>
			<circle style="fill-rule:evenodd;clip-rule:evenodd;fill:#F4E7C0;" cx="399.96" cy="390.306" r="326.883"/>
			<circle style="fill-rule:evenodd;clip-rule:evenodd;fill:#F4E7C0;" cx="399.96" cy="390.306" r="325.441"/>
			<circle style="fill-rule:evenodd;clip-rule:evenodd;fill:#F5E7C1;" cx="399.96" cy="390.306" r="324"/>
			<circle style="fill-rule:evenodd;clip-rule:evenodd;fill:#F5E7C1;" cx="399.96" cy="390.306" r="322.559"/>
			<circle style="fill-rule:evenodd;clip-rule:evenodd;fill:#F5E7C1;" cx="399.96" cy="390.306" r="321.117"/>
			<circle style="fill-rule:evenodd;clip-rule:evenodd;fill:#F5E7C2;" cx="399.96" cy="390.306" r="319.676"/>
			<circle style="fill-rule:evenodd;clip-rule:evenodd;fill:#F5E8C2;" cx="399.96" cy="390.306" r="318.234"/>
			<circle style="fill-rule:evenodd;clip-rule:evenodd;fill:#F5E8C3;" cx="399.96" cy="390.306" r="316.793"/>
			<circle style="fill-rule:evenodd;clip-rule:evenodd;fill:#F5E8C3;" cx="399.96" cy="390.306" r="315.351"/>
			
				<ellipse transform="matrix(0.7071 -0.7071 0.7071 0.7071 -158.8423 397.1325)" style="fill-rule:evenodd;clip-rule:evenodd;fill:#F5E8C3;" cx="399.96" cy="390.306" rx="313.91" ry="313.91"/>
			
				<ellipse transform="matrix(0.7071 -0.7071 0.7071 0.7071 -158.8423 397.1325)" style="fill-rule:evenodd;clip-rule:evenodd;fill:#F5E8C4;" cx="399.96" cy="390.306" rx="312.468" ry="312.469"/>
			
				<ellipse transform="matrix(0.7071 -0.7071 0.7071 0.7071 -158.8423 397.1325)" style="fill-rule:evenodd;clip-rule:evenodd;fill:#F5E8C4;" cx="399.96" cy="390.306" rx="311.027" ry="311.027"/>
			
				<ellipse transform="matrix(0.7071 -0.7071 0.7071 0.7071 -158.8421 397.1324)" style="fill-rule:evenodd;clip-rule:evenodd;fill:#F6E9C5;" cx="399.96" cy="390.306" rx="309.586" ry="309.586"/>
			
				<ellipse transform="matrix(0.7071 -0.7071 0.7071 0.7071 -158.8421 397.1324)" style="fill-rule:evenodd;clip-rule:evenodd;fill:#F6E9C5;" cx="399.96" cy="390.306" rx="308.144" ry="308.145"/>
			
				<ellipse transform="matrix(0.7071 -0.7071 0.7071 0.7071 -158.8423 397.1325)" style="fill-rule:evenodd;clip-rule:evenodd;fill:#F6E9C5;" cx="399.96" cy="390.306" rx="306.703" ry="306.703"/>
			<circle style="fill-rule:evenodd;clip-rule:evenodd;fill:#F6E9C6;" cx="399.96" cy="390.306" r="305.261"/>
			<circle style="fill-rule:evenodd;clip-rule:evenodd;fill:#F6E9C6;" cx="399.96" cy="390.306" r="303.82"/>
			<circle style="fill-rule:evenodd;clip-rule:evenodd;fill:#F6EAC6;" cx="399.96" cy="390.306" r="302.378"/>
			<circle style="fill-rule:evenodd;clip-rule:evenodd;fill:#F6EAC7;" cx="399.96" cy="390.306" r="300.937"/>
			
				<ellipse transform="matrix(0.7071 -0.7071 0.7071 0.7071 -158.8423 397.1324)" style="fill-rule:evenodd;clip-rule:evenodd;fill:#F6EAC7;" cx="399.96" cy="390.306" rx="299.495" ry="299.495"/>
			<circle style="fill-rule:evenodd;clip-rule:evenodd;fill:#F6EAC8;" cx="399.96" cy="390.306" r="298.054"/>
			<circle style="fill-rule:evenodd;clip-rule:evenodd;fill:#F6EAC8;" cx="399.96" cy="390.306" r="296.612"/>
			<circle style="fill-rule:evenodd;clip-rule:evenodd;fill:#F7EAC8;" cx="399.96" cy="390.306" r="295.171"/>
			<circle style="fill-rule:evenodd;clip-rule:evenodd;fill:#F7EBC9;" cx="399.96" cy="390.306" r="293.729"/>
			<circle style="fill-rule:evenodd;clip-rule:evenodd;fill:#F7EBC9;" cx="399.96" cy="390.306" r="292.288"/>
			
				<ellipse transform="matrix(0.7071 -0.7071 0.7071 0.7071 -158.8422 397.1323)" style="fill-rule:evenodd;clip-rule:evenodd;fill:#F7EBCA;" cx="399.96" cy="390.306" rx="290.847" ry="290.847"/>
			
				<ellipse transform="matrix(0.7071 -0.7071 0.7071 0.7071 -158.8422 397.1323)" style="fill-rule:evenodd;clip-rule:evenodd;fill:#F7EBCA;" cx="399.96" cy="390.306" rx="289.405" ry="289.405"/>
			
				<ellipse transform="matrix(0.7071 -0.7071 0.7071 0.7071 -158.8422 397.1323)" style="fill-rule:evenodd;clip-rule:evenodd;fill:#F7EBCA;" cx="399.96" cy="390.306" rx="287.964" ry="287.964"/>
			
				<ellipse transform="matrix(0.7071 -0.7071 0.7071 0.7071 -158.8422 397.1323)" style="fill-rule:evenodd;clip-rule:evenodd;fill:#F7EBCB;" cx="399.96" cy="390.306" rx="286.522" ry="286.522"/>
			<circle style="fill-rule:evenodd;clip-rule:evenodd;fill:#F7ECCB;" cx="399.96" cy="390.306" r="285.081"/>
			
				<ellipse transform="matrix(0.7071 -0.7071 0.7071 0.7071 -158.8422 397.1323)" style="fill-rule:evenodd;clip-rule:evenodd;fill:#F7ECCB;" cx="399.96" cy="390.306" rx="283.64" ry="283.64"/>
			
				<ellipse transform="matrix(0.7071 -0.7071 0.7071 0.7071 -158.8422 397.1323)" style="fill-rule:evenodd;clip-rule:evenodd;fill:#F7ECCC;" cx="399.96" cy="390.306" rx="282.198" ry="282.198"/>
			
				<ellipse transform="matrix(0.7071 -0.7071 0.7071 0.7071 -158.8422 397.1323)" style="fill-rule:evenodd;clip-rule:evenodd;fill:#F8ECCC;" cx="399.96" cy="390.306" rx="280.757" ry="280.757"/>
			
				<ellipse transform="matrix(0.7071 -0.7071 0.7071 0.7071 -158.8424 397.1324)" style="fill-rule:evenodd;clip-rule:evenodd;fill:#F8ECCD;" cx="399.96" cy="390.306" rx="279.315" ry="279.315"/>
			<circle style="fill-rule:evenodd;clip-rule:evenodd;fill:#F8ECCD;" cx="399.96" cy="390.306" r="277.874"/>
			
				<ellipse transform="matrix(0.7071 -0.7071 0.7071 0.7071 -158.8422 397.1323)" style="fill-rule:evenodd;clip-rule:evenodd;fill:#F8EDCD;" cx="399.96" cy="390.306" rx="276.433" ry="276.433"/>
			<circle style="fill-rule:evenodd;clip-rule:evenodd;fill:#F8EDCE;" cx="399.96" cy="390.306" r="274.991"/>
			<circle style="fill-rule:evenodd;clip-rule:evenodd;fill:#F8EDCE;" cx="399.96" cy="390.306" r="273.55"/>
			<circle style="fill-rule:evenodd;clip-rule:evenodd;fill:#F8EDCE;" cx="399.96" cy="390.306" r="272.108"/>
			<circle style="fill-rule:evenodd;clip-rule:evenodd;fill:#F8EDCF;" cx="399.96" cy="390.306" r="270.667"/>
			
				<ellipse transform="matrix(0.7071 -0.7071 0.7071 0.7071 -158.8423 397.1324)" style="fill-rule:evenodd;clip-rule:evenodd;fill:#F8EDCF;" cx="399.96" cy="390.306" rx="269.225" ry="269.225"/>
			
				<ellipse transform="matrix(0.7071 -0.7071 0.7071 0.7071 -158.8423 397.1324)" style="fill-rule:evenodd;clip-rule:evenodd;fill:#F8EED0;" cx="399.96" cy="390.306" rx="267.784" ry="267.784"/>
			
				<ellipse transform="matrix(0.7071 -0.7071 0.7071 0.7071 -158.8423 397.1324)" style="fill-rule:evenodd;clip-rule:evenodd;fill:#F9EED0;" cx="399.96" cy="390.306" rx="266.343" ry="266.343"/>
			
				<ellipse transform="matrix(0.7071 -0.7071 0.7071 0.7071 -158.8424 397.1324)" style="fill-rule:evenodd;clip-rule:evenodd;fill:#F9EED0;" cx="399.96" cy="390.306" rx="264.901" ry="264.901"/>
			
				<ellipse transform="matrix(0.7071 -0.7071 0.7071 0.7071 -158.8421 397.1324)" style="fill-rule:evenodd;clip-rule:evenodd;fill:#F9EED1;" cx="399.96" cy="390.306" rx="263.459" ry="263.459"/>
			
				<ellipse transform="matrix(0.7071 -0.7071 0.7071 0.7071 -158.8421 397.1324)" style="fill-rule:evenodd;clip-rule:evenodd;fill:#F9EED1;" cx="399.96" cy="390.306" rx="262.018" ry="262.018"/>
			
				<ellipse transform="matrix(0.7071 -0.7071 0.7071 0.7071 -158.8422 397.1323)" style="fill-rule:evenodd;clip-rule:evenodd;fill:#F9EED2;" cx="399.96" cy="390.306" rx="260.576" ry="260.576"/>
			
				<ellipse transform="matrix(0.7071 -0.7071 0.7071 0.7071 -158.8422 397.1323)" style="fill-rule:evenodd;clip-rule:evenodd;fill:#F9EFD2;" cx="399.96" cy="390.306" rx="259.135" ry="259.135"/>
			
				<ellipse transform="matrix(0.7071 -0.7071 0.7071 0.7071 -158.8422 397.1323)" style="fill-rule:evenodd;clip-rule:evenodd;fill:#F9EFD2;" cx="399.96" cy="390.306" rx="257.693" ry="257.693"/>
			
				<ellipse transform="matrix(0.7071 -0.7071 0.7071 0.7071 -158.8422 397.1323)" style="fill-rule:evenodd;clip-rule:evenodd;fill:#F9EFD3;" cx="399.96" cy="390.306" rx="256.252" ry="256.252"/>
			
				<ellipse transform="matrix(0.7071 -0.7071 0.7071 0.7071 -158.8422 397.1323)" style="fill-rule:evenodd;clip-rule:evenodd;fill:#F9EFD3;" cx="399.96" cy="390.306" rx="254.811" ry="254.811"/>
			
				<ellipse transform="matrix(0.7071 -0.7071 0.7071 0.7071 -158.8421 397.1324)" style="fill-rule:evenodd;clip-rule:evenodd;fill:#F9EFD3;" cx="399.96" cy="390.306" rx="253.369" ry="253.37"/>
			
				<ellipse transform="matrix(0.7071 -0.7071 0.7071 0.7071 -158.8422 397.1323)" style="fill-rule:evenodd;clip-rule:evenodd;fill:#FAF0D4;" cx="399.96" cy="390.306" rx="251.928" ry="251.928"/>
			
				<ellipse transform="matrix(0.7071 -0.7071 0.7071 0.7071 -158.8422 397.1323)" style="fill-rule:evenodd;clip-rule:evenodd;fill:#FAF0D4;" cx="399.96" cy="390.306" rx="250.486" ry="250.486"/>
			
				<ellipse transform="matrix(0.7071 -0.7071 0.7071 0.7071 -158.8422 397.1323)" style="fill-rule:evenodd;clip-rule:evenodd;fill:#FAF0D5;" cx="399.96" cy="390.306" rx="249.045" ry="249.045"/>
			
				<ellipse transform="matrix(0.7071 -0.7071 0.7071 0.7071 -158.8422 397.1323)" style="fill-rule:evenodd;clip-rule:evenodd;fill:#FAF0D5;" cx="399.96" cy="390.306" rx="247.604" ry="247.604"/>
			<circle style="fill-rule:evenodd;clip-rule:evenodd;fill:#FAF0D5;" cx="399.96" cy="390.306" r="246.162"/>
			<circle style="fill-rule:evenodd;clip-rule:evenodd;fill:#FAF0D6;" cx="399.96" cy="390.306" r="244.721"/>
			<circle style="fill-rule:evenodd;clip-rule:evenodd;fill:#FAF1D6;" cx="399.96" cy="390.306" r="243.279"/>
			<circle style="fill-rule:evenodd;clip-rule:evenodd;fill:#FAF1D7;" cx="399.96" cy="390.306" r="241.838"/>
			
				<ellipse transform="matrix(0.7071 -0.7071 0.7071 0.7071 -158.8423 397.1324)" style="fill-rule:evenodd;clip-rule:evenodd;fill:#FAF1D7;" cx="399.96" cy="390.306" rx="240.396" ry="240.396"/>
			
				<ellipse transform="matrix(0.7071 -0.7071 0.7071 0.7071 -158.8423 397.1324)" style="fill-rule:evenodd;clip-rule:evenodd;fill:#FAF1D7;" cx="399.96" cy="390.306" rx="238.955" ry="238.955"/>
			
				<ellipse transform="matrix(0.7071 -0.7071 0.7071 0.7071 -158.8423 397.1324)" style="fill-rule:evenodd;clip-rule:evenodd;fill:#FBF1D8;" cx="399.96" cy="390.306" rx="237.514" ry="237.514"/>
			
				<ellipse transform="matrix(0.7071 -0.7071 0.7071 0.7071 -158.8424 397.1324)" style="fill-rule:evenodd;clip-rule:evenodd;fill:#FBF1D8;" cx="399.96" cy="390.306" rx="236.072" ry="236.072"/>
			
				<ellipse transform="matrix(0.7071 -0.7071 0.7071 0.7071 -158.8424 397.1324)" style="fill-rule:evenodd;clip-rule:evenodd;fill:#FBF2D8;" cx="399.96" cy="390.306" rx="234.631" ry="234.631"/>
			
				<ellipse transform="matrix(0.7071 -0.7071 0.7071 0.7071 -158.8424 397.1324)" style="fill-rule:evenodd;clip-rule:evenodd;fill:#FBF2D9;" cx="399.96" cy="390.306" rx="233.189" ry="233.189"/>
			
				<ellipse transform="matrix(0.7071 -0.7071 0.7071 0.7071 -158.8424 397.1324)" style="fill-rule:evenodd;clip-rule:evenodd;fill:#FBF2D9;" cx="399.96" cy="390.306" rx="231.748" ry="231.748"/>
			
				<ellipse transform="matrix(0.7071 -0.7071 0.7071 0.7071 -158.8424 397.1324)" style="fill-rule:evenodd;clip-rule:evenodd;fill:#FBF2DA;" cx="399.96" cy="390.306" rx="230.306" ry="230.306"/>
			
				<ellipse transform="matrix(0.7071 -0.7071 0.7071 0.7071 -158.8424 397.1324)" style="fill-rule:evenodd;clip-rule:evenodd;fill:#FBF2DA;" cx="399.96" cy="390.306" rx="228.865" ry="228.865"/>
			
				<ellipse transform="matrix(0.7071 -0.7071 0.7071 0.7071 -158.8424 397.1324)" style="fill-rule:evenodd;clip-rule:evenodd;fill:#FBF2DA;" cx="399.96" cy="390.306" rx="227.423" ry="227.423"/>
			
				<ellipse transform="matrix(0.7071 -0.7071 0.7071 0.7071 -158.8424 397.1324)" style="fill-rule:evenodd;clip-rule:evenodd;fill:#FBF3DB;" cx="399.96" cy="390.306" rx="225.982" ry="225.982"/>
			
				<ellipse transform="matrix(0.7071 -0.7071 0.7071 0.7071 -158.8424 397.1324)" style="fill-rule:evenodd;clip-rule:evenodd;fill:#FBF3DB;" cx="399.96" cy="390.306" rx="224.54" ry="224.54"/>
			
				<ellipse transform="matrix(0.7071 -0.7071 0.7071 0.7071 -158.8424 397.1324)" style="fill-rule:evenodd;clip-rule:evenodd;fill:#FCF3DC;" cx="399.96" cy="390.306" rx="223.099" ry="223.099"/>
			
				<ellipse transform="matrix(0.7071 -0.7071 0.7071 0.7071 -158.8423 397.1324)" style="fill-rule:evenodd;clip-rule:evenodd;fill:#FCF3DC;" cx="399.96" cy="390.306" rx="221.658" ry="221.658"/>
			
				<ellipse transform="matrix(0.7071 -0.7071 0.7071 0.7071 -158.8423 397.1324)" style="fill-rule:evenodd;clip-rule:evenodd;fill:#FCF3DC;" cx="399.96" cy="390.306" rx="220.216" ry="220.216"/>
			
				<ellipse transform="matrix(0.7071 -0.7071 0.7071 0.7071 -158.8423 397.1324)" style="fill-rule:evenodd;clip-rule:evenodd;fill:#FCF3DD;" cx="399.96" cy="390.306" rx="218.775" ry="218.775"/>
			<circle style="fill-rule:evenodd;clip-rule:evenodd;fill:#FCF4DD;" cx="399.96" cy="390.306" r="217.333"/>
			<circle style="fill-rule:evenodd;clip-rule:evenodd;fill:#FCF4DD;" cx="399.96" cy="390.306" r="215.892"/>
			<circle style="fill-rule:evenodd;clip-rule:evenodd;fill:#FCF4DE;" cx="399.96" cy="390.306" r="214.45"/>
			<circle style="fill-rule:evenodd;clip-rule:evenodd;fill:#FCF4DE;" cx="399.96" cy="390.306" r="213.009"/>
			
				<ellipse transform="matrix(0.7071 -0.7071 0.7071 0.7071 -158.8422 397.1323)" style="fill-rule:evenodd;clip-rule:evenodd;fill:#FCF4DF;" cx="399.96" cy="390.306" rx="211.567" ry="211.567"/>
			
				<ellipse transform="matrix(0.7071 -0.7071 0.7071 0.7071 -158.8422 397.1323)" style="fill-rule:evenodd;clip-rule:evenodd;fill:#FCF5DF;" cx="399.96" cy="390.306" rx="210.126" ry="210.126"/>
			
				<ellipse transform="matrix(0.7071 -0.7071 0.7071 0.7071 -158.8422 397.1323)" style="fill-rule:evenodd;clip-rule:evenodd;fill:#FDF5DF;" cx="399.96" cy="390.306" rx="208.685" ry="208.685"/>
			
				<ellipse transform="matrix(0.7071 -0.7071 0.7071 0.7071 -158.8422 397.1323)" style="fill-rule:evenodd;clip-rule:evenodd;fill:#FDF5E0;" cx="399.96" cy="390.306" rx="207.243" ry="207.243"/>
			
				<ellipse transform="matrix(0.7071 -0.7071 0.7071 0.7071 -158.8424 397.1324)" style="fill-rule:evenodd;clip-rule:evenodd;fill:#FDF5E0;" cx="399.96" cy="390.306" rx="205.802" ry="205.802"/>
			
				<ellipse transform="matrix(0.7071 -0.7071 0.7071 0.7071 -158.8424 397.1324)" style="fill-rule:evenodd;clip-rule:evenodd;fill:#FDF5E1;" cx="399.96" cy="390.306" rx="204.36" ry="204.36"/>
			
				<ellipse transform="matrix(0.7071 -0.7071 0.7071 0.7071 -158.8424 397.1324)" style="fill-rule:evenodd;clip-rule:evenodd;fill:#FDF5E1;" cx="399.96" cy="390.306" rx="202.919" ry="202.919"/>
			
				<ellipse transform="matrix(0.7071 -0.7071 0.7071 0.7071 -158.8424 397.1324)" style="fill-rule:evenodd;clip-rule:evenodd;fill:#FDF6E1;" cx="399.96" cy="390.306" rx="201.477" ry="201.477"/>
			
				<ellipse transform="matrix(0.7071 -0.7071 0.7071 0.7071 -158.8424 397.1324)" style="fill-rule:evenodd;clip-rule:evenodd;fill:#FDF6E2;" cx="399.96" cy="390.306" rx="200.036" ry="200.036"/>
			
				<ellipse transform="matrix(0.7071 -0.7071 0.7071 0.7071 -158.8424 397.1324)" style="fill-rule:evenodd;clip-rule:evenodd;fill:#FDF6E2;" cx="399.96" cy="390.306" rx="198.595" ry="198.595"/>
			
				<ellipse transform="matrix(0.7071 -0.7071 0.7071 0.7071 -158.8424 397.1324)" style="fill-rule:evenodd;clip-rule:evenodd;fill:#FDF6E2;" cx="399.96" cy="390.306" rx="197.153" ry="197.153"/>
			
				<ellipse transform="matrix(0.7071 -0.7071 0.7071 0.7071 -158.8424 397.1324)" style="fill-rule:evenodd;clip-rule:evenodd;fill:#FDF6E3;" cx="399.96" cy="390.306" rx="195.712" ry="195.712"/>
			<circle style="fill-rule:evenodd;clip-rule:evenodd;fill:#FEF6E3;" cx="399.96" cy="390.306" r="194.27"/>
			<circle style="fill-rule:evenodd;clip-rule:evenodd;fill:#FEF7E4;" cx="399.96" cy="390.306" r="192.829"/>
			<circle style="fill-rule:evenodd;clip-rule:evenodd;fill:#FEF7E4;" cx="399.96" cy="390.306" r="191.388"/>
			<circle style="fill-rule:evenodd;clip-rule:evenodd;fill:#FEF7E4;" cx="399.96" cy="390.306" r="189.946"/>
			
				<ellipse transform="matrix(0.7071 -0.7071 0.7071 0.7071 -158.8423 397.1324)" style="fill-rule:evenodd;clip-rule:evenodd;fill:#FEF7E5;" cx="399.96" cy="390.306" rx="188.505" ry="188.505"/>
			
				<ellipse transform="matrix(0.7071 -0.7071 0.7071 0.7071 -158.8423 397.1324)" style="fill-rule:evenodd;clip-rule:evenodd;fill:#FEF7E5;" cx="399.96" cy="390.306" rx="187.063" ry="187.063"/>
			
				<ellipse transform="matrix(0.7071 -0.7071 0.7071 0.7071 -158.8423 397.1324)" style="fill-rule:evenodd;clip-rule:evenodd;fill:#FEF7E6;" cx="399.96" cy="390.306" rx="185.622" ry="185.622"/>
			
				<ellipse transform="matrix(0.7071 -0.7071 0.7071 0.7071 -158.8424 397.1324)" style="fill-rule:evenodd;clip-rule:evenodd;fill:#FEF8E6;" cx="399.96" cy="390.306" rx="184.181" ry="184.18"/>
			
				<ellipse transform="matrix(0.7071 -0.7071 0.7071 0.7071 -158.8424 397.1324)" style="fill-rule:evenodd;clip-rule:evenodd;fill:#FEF8E6;" cx="399.96" cy="390.306" rx="182.739" ry="182.739"/>
			
				<ellipse transform="matrix(0.7071 -0.7071 0.7071 0.7071 -158.8424 397.1324)" style="fill-rule:evenodd;clip-rule:evenodd;fill:#FEF8E7;" cx="399.96" cy="390.306" rx="181.298" ry="181.298"/>
			
				<ellipse transform="matrix(0.7071 -0.7071 0.7071 0.7071 -158.8422 397.1323)" style="fill-rule:evenodd;clip-rule:evenodd;fill:#FFF8E7;" cx="399.96" cy="390.306" rx="179.855" ry="179.855"/>
			
				<ellipse transform="matrix(0.7071 -0.7071 0.7071 0.7071 -158.8422 397.1323)" style="fill-rule:evenodd;clip-rule:evenodd;fill:#FFF8E7;" cx="399.96" cy="390.306" rx="178.414" ry="178.414"/>
			
				<ellipse transform="matrix(0.7071 -0.7071 0.7071 0.7071 -158.8422 397.1323)" style="fill-rule:evenodd;clip-rule:evenodd;fill:#FFF8E8;" cx="399.96" cy="390.306" rx="176.973" ry="176.973"/>
			
				<ellipse transform="matrix(0.7071 -0.7071 0.7071 0.7071 -158.8422 397.1323)" style="fill-rule:evenodd;clip-rule:evenodd;fill:#FFF9E8;" cx="399.96" cy="390.306" rx="175.531" ry="175.531"/>
			
				<ellipse transform="matrix(0.7071 -0.7071 0.7071 0.7071 -158.8422 397.1323)" style="fill-rule:evenodd;clip-rule:evenodd;fill:#FFF9E9;" cx="399.96" cy="390.306" rx="174.09" ry="174.09"/>
		</g>
		
			<ellipse transform="matrix(0.7071 -0.7071 0.7071 0.7071 -158.8424 397.1324)" style="fill-rule:evenodd;clip-rule:evenodd;fill:#FFF9E9;" cx="399.96" cy="390.306" rx="172.649" ry="172.649"/>
	</g>
</g>
<g id="Objects">
	<g>
		<g>
			<path style="fill-rule:evenodd;clip-rule:evenodd;" d="M304.121,776.012c0.324-0.001,0.621-0.087,0.889-0.256
				c0.272-0.171,0.487-0.431,0.65-0.784c0.159-0.354,0.239-0.793,0.239-1.317c0-0.499-0.08-0.925-0.239-1.279
				c-0.163-0.358-0.382-0.634-0.656-0.818c-0.27-0.188-0.564-0.279-0.883-0.283v-1.341c0.302,0.042,0.57,0.122,0.805,0.238
				c0.369,0.184,0.728,0.469,1.076,0.85v-2.748c0-0.382,0.077-0.67,0.23-0.866c0.151-0.198,0.369-0.292,0.648-0.292
				c0.283,0,0.501,0.089,0.652,0.271c0.153,0.178,0.229,0.442,0.229,0.792v8.209c0,0.355-0.082,0.621-0.244,0.797
				c-0.165,0.178-0.378,0.266-0.638,0.266c-0.254,0-0.464-0.088-0.629-0.274c-0.166-0.182-0.25-0.447-0.25-0.788v-0.185
				c-0.249,0.288-0.496,0.519-0.738,0.699c-0.244,0.18-0.506,0.315-0.792,0.409c-0.112,0.037-0.229,0.066-0.351,0.089V776.012z
				 M302.342,773.654c0,0.503,0.078,0.932,0.235,1.286c0.157,0.356,0.372,0.621,0.644,0.8c0.271,0.183,0.57,0.271,0.894,0.271h0.007
				v1.387c-0.184,0.033-0.377,0.05-0.578,0.05c-0.446,0-0.859-0.093-1.237-0.281c-0.38-0.188-0.709-0.457-0.986-0.809
				c-0.277-0.347-0.488-0.761-0.631-1.234c-0.145-0.472-0.215-0.983-0.215-1.534c0-1.162,0.284-2.069,0.853-2.72
				c0.568-0.649,1.316-0.975,2.242-0.975c0.195,0,0.379,0.012,0.553,0.037v1.341h-0.021c-0.341,0-0.646,0.095-0.914,0.287
				c-0.267,0.193-0.475,0.474-0.622,0.835C302.415,772.754,302.342,773.177,302.342,773.654z"/>
			<path style="fill-rule:evenodd;clip-rule:evenodd;" d="M312.873,773.065h1.687c-0.045-0.636-0.216-1.112-0.516-1.427
				c-0.297-0.315-0.688-0.474-1.171-0.475v-1.295h0.057c0.729,0,1.352,0.15,1.869,0.461c0.523,0.306,0.912,0.701,1.173,1.188
				c0.259,0.485,0.387,0.983,0.387,1.487c0,0.465-0.135,0.773-0.402,0.91c-0.27,0.139-0.644,0.208-1.132,0.208h-1.951V773.065
				L312.873,773.065z M312.873,777.445v-1.235c0.046,0.003,0.092,0.005,0.139,0.005c0.223,0,0.426-0.024,0.61-0.076
				c0.184-0.05,0.36-0.137,0.534-0.248c0.174-0.11,0.333-0.23,0.479-0.356c0.145-0.128,0.332-0.301,0.564-0.517
				c0.097-0.083,0.232-0.127,0.409-0.127c0.19,0,0.345,0.055,0.464,0.158c0.118,0.104,0.178,0.253,0.178,0.442
				c0,0.169-0.066,0.364-0.197,0.592c-0.133,0.225-0.331,0.441-0.599,0.648c-0.263,0.206-0.597,0.375-1.001,0.516
				c-0.402,0.134-0.864,0.201-1.388,0.201C313,777.448,312.935,777.447,312.873,777.445z M311.185,773.065h1.688v1.058h-1.688
				c0.004,0.423,0.089,0.793,0.254,1.116c0.167,0.325,0.387,0.567,0.664,0.729c0.235,0.143,0.491,0.223,0.77,0.242v1.235
				c-1.103-0.035-1.968-0.376-2.596-1.019c-0.664-0.681-0.996-1.606-0.996-2.771c0-0.552,0.082-1.064,0.246-1.534
				c0.164-0.469,0.403-0.874,0.716-1.21c0.314-0.334,0.7-0.592,1.16-0.773c0.442-0.173,0.933-0.262,1.47-0.268v1.295h-0.006
				c-0.462,0-0.844,0.158-1.14,0.478C311.43,771.963,311.248,772.438,311.185,773.065z"/>
			<path style="fill-rule:evenodd;clip-rule:evenodd;" d="M323.92,775.018c0,0.51-0.125,0.95-0.374,1.315
				c-0.252,0.368-0.62,0.646-1.108,0.834c-0.488,0.188-1.084,0.281-1.782,0.281c-0.669,0-1.241-0.101-1.72-0.305
				c-0.478-0.204-0.828-0.464-1.058-0.767c-0.226-0.308-0.341-0.616-0.341-0.925c0-0.205,0.073-0.38,0.219-0.524
				c0.146-0.146,0.329-0.221,0.554-0.221c0.194,0,0.345,0.05,0.45,0.146c0.103,0.092,0.204,0.228,0.3,0.399
				c0.19,0.332,0.418,0.58,0.684,0.741c0.267,0.166,0.63,0.247,1.089,0.247c0.372,0,0.678-0.083,0.917-0.247
				c0.238-0.167,0.357-0.354,0.357-0.568c0-0.328-0.125-0.567-0.371-0.719c-0.247-0.147-0.655-0.294-1.226-0.429
				c-0.64-0.159-1.161-0.322-1.563-0.5c-0.401-0.176-0.723-0.405-0.965-0.691c-0.24-0.289-0.361-0.639-0.361-1.058
				c0-0.371,0.11-0.725,0.334-1.06c0.222-0.33,0.551-0.592,0.984-0.791c0.436-0.199,0.959-0.296,1.57-0.296
				c0.482,0,0.915,0.049,1.299,0.148c0.386,0.102,0.705,0.234,0.963,0.405c0.257,0.167,0.451,0.353,0.586,0.558
				c0.134,0.205,0.201,0.404,0.201,0.6c0,0.214-0.071,0.39-0.215,0.524c-0.143,0.134-0.348,0.204-0.609,0.204
				c-0.191,0-0.355-0.054-0.488-0.161c-0.134-0.108-0.287-0.272-0.461-0.492c-0.14-0.181-0.306-0.329-0.496-0.438
				c-0.192-0.108-0.451-0.165-0.779-0.165c-0.336,0-0.614,0.076-0.837,0.221c-0.223,0.14-0.335,0.319-0.335,0.529
				c0,0.199,0.082,0.358,0.247,0.482c0.164,0.128,0.382,0.231,0.661,0.313c0.275,0.08,0.658,0.18,1.145,0.299
				c0.578,0.142,1.049,0.307,1.415,0.504c0.367,0.195,0.642,0.426,0.831,0.693C323.826,774.371,323.92,774.675,323.92,775.018z"/>
			<path style="fill-rule:evenodd;clip-rule:evenodd;" d="M327.355,770.936v5.382c0,0.372-0.088,0.653-0.266,0.845
				c-0.176,0.192-0.401,0.285-0.674,0.285c-0.273,0-0.496-0.095-0.665-0.292c-0.171-0.195-0.255-0.477-0.255-0.838v-5.325
				c0-0.366,0.084-0.647,0.255-0.83c0.169-0.188,0.392-0.28,0.665-0.28c0.272,0,0.498,0.093,0.674,0.28
				C327.268,770.346,327.355,770.605,327.355,770.936L327.355,770.936z M326.436,769.017c-0.261,0-0.481-0.083-0.664-0.238
				c-0.186-0.159-0.276-0.385-0.276-0.676c0-0.264,0.094-0.482,0.283-0.651c0.188-0.173,0.405-0.256,0.657-0.256
				c0.239,0,0.454,0.075,0.64,0.23c0.186,0.158,0.279,0.383,0.279,0.678c0,0.286-0.091,0.51-0.271,0.674
				C326.902,768.933,326.685,769.017,326.436,769.017z"/>
			<path style="fill-rule:evenodd;clip-rule:evenodd;" d="M332.521,775.894c0.303-0.003,0.59-0.086,0.858-0.247
				c0.274-0.17,0.499-0.417,0.671-0.752c0.176-0.334,0.26-0.738,0.26-1.215c0-0.762-0.167-1.352-0.501-1.773
				c-0.327-0.417-0.758-0.626-1.288-0.634v-1.331c0.286,0.049,0.547,0.134,0.78,0.255c0.386,0.202,0.744,0.521,1.078,0.951v-0.252
				c0-0.32,0.078-0.571,0.239-0.747c0.157-0.18,0.362-0.267,0.61-0.267c0.36,0,0.599,0.119,0.717,0.352
				c0.118,0.231,0.177,0.567,0.177,1.012v5.406c0,0.616-0.064,1.149-0.197,1.595c-0.131,0.447-0.342,0.813-0.634,1.105
				c-0.29,0.288-0.671,0.508-1.142,0.648c-0.443,0.13-0.986,0.201-1.629,0.209v-1.296c0.406-0.013,0.731-0.078,0.968-0.199
				c0.267-0.132,0.451-0.32,0.56-0.562c0.107-0.243,0.166-0.501,0.186-0.772c0.018-0.275,0.034-0.718,0.044-1.326
				c-0.288,0.397-0.619,0.703-0.995,0.911c-0.228,0.127-0.481,0.216-0.762,0.266V775.894z M330.731,773.606
				c0,0.752,0.164,1.324,0.494,1.71c0.33,0.384,0.755,0.578,1.278,0.578h0.018v1.336c-0.182,0.032-0.373,0.049-0.577,0.049
				c-0.621,0-1.166-0.159-1.634-0.479c-0.466-0.315-0.822-0.762-1.071-1.336c-0.252-0.573-0.376-1.234-0.376-1.986
				c0-0.555,0.076-1.06,0.229-1.509c0.152-0.451,0.368-0.831,0.65-1.141c0.282-0.31,0.607-0.541,0.977-0.699
				c0.367-0.153,0.771-0.233,1.213-0.233c0.207,0,0.403,0.016,0.59,0.047v1.331h-0.031c-0.531,0-0.959,0.2-1.278,0.607
				C330.891,772.284,330.731,772.856,330.731,773.606L330.731,773.606z M332.521,778.913v1.296l-0.127,0.001
				c-0.64,0-1.214-0.09-1.718-0.27c-0.505-0.18-0.894-0.412-1.167-0.694c-0.271-0.286-0.406-0.575-0.406-0.878
				c0-0.228,0.076-0.41,0.231-0.552c0.154-0.147,0.34-0.218,0.559-0.218c0.272,0,0.512,0.12,0.717,0.36
				c0.1,0.123,0.201,0.249,0.309,0.373c0.108,0.122,0.225,0.231,0.354,0.321c0.129,0.089,0.285,0.154,0.467,0.196
				c0.181,0.043,0.391,0.065,0.627,0.065L332.521,778.913z"/>
			<path style="fill-rule:evenodd;clip-rule:evenodd;" d="M339.697,770.91v0.228c0.326-0.435,0.685-0.752,1.074-0.951
				c0.387-0.202,0.834-0.304,1.339-0.304c0.49,0,0.93,0.106,1.315,0.317c0.385,0.215,0.674,0.518,0.866,0.908
				c0.122,0.228,0.201,0.475,0.237,0.735c0.037,0.266,0.056,0.601,0.056,1.009v3.466c0,0.372-0.085,0.653-0.255,0.845
				c-0.172,0.192-0.394,0.285-0.666,0.285c-0.277,0-0.502-0.095-0.675-0.292c-0.171-0.195-0.259-0.477-0.259-0.838v-3.103
				c0-0.611-0.084-1.084-0.255-1.409c-0.171-0.324-0.511-0.487-1.021-0.487c-0.332,0-0.634,0.102-0.906,0.297
				c-0.273,0.194-0.473,0.468-0.601,0.814c-0.089,0.281-0.136,0.8-0.136,1.556v2.333c0,0.375-0.088,0.661-0.263,0.849
				c-0.176,0.188-0.401,0.281-0.679,0.281c-0.268,0-0.488-0.095-0.661-0.292c-0.173-0.195-0.258-0.477-0.258-0.838v-5.382
				c0-0.354,0.076-0.618,0.232-0.793c0.154-0.174,0.365-0.261,0.633-0.261c0.163,0,0.313,0.036,0.443,0.114
				c0.131,0.078,0.238,0.192,0.316,0.349C339.657,770.5,339.697,770.688,339.697,770.91z"/>
			<path style="fill-rule:evenodd;clip-rule:evenodd;" d="M349.682,773.065h1.688c-0.047-0.636-0.219-1.112-0.516-1.427
				c-0.296-0.315-0.688-0.474-1.172-0.475v-1.295h0.059c0.727,0,1.35,0.15,1.87,0.461c0.52,0.306,0.91,0.701,1.17,1.188
				c0.259,0.485,0.388,0.983,0.388,1.487c0,0.465-0.135,0.773-0.401,0.91c-0.269,0.139-0.644,0.208-1.132,0.208h-1.953V773.065
				L349.682,773.065z M349.682,777.445v-1.235c0.046,0.003,0.092,0.005,0.139,0.005c0.224,0,0.426-0.024,0.61-0.076
				c0.185-0.05,0.361-0.137,0.536-0.248c0.173-0.11,0.332-0.23,0.477-0.356c0.146-0.128,0.335-0.301,0.565-0.517
				c0.097-0.083,0.233-0.127,0.409-0.127c0.191,0,0.345,0.055,0.463,0.158c0.118,0.104,0.18,0.253,0.18,0.442
				c0,0.169-0.066,0.364-0.2,0.592c-0.13,0.225-0.33,0.441-0.597,0.648c-0.263,0.206-0.598,0.375-1.001,0.516
				c-0.401,0.134-0.866,0.201-1.388,0.201C349.81,777.448,349.745,777.447,349.682,777.445z M347.994,773.065h1.688v1.058h-1.688
				c0.004,0.423,0.088,0.793,0.255,1.116c0.166,0.325,0.387,0.567,0.66,0.729c0.237,0.143,0.494,0.223,0.772,0.242v1.235
				c-1.103-0.035-1.967-0.376-2.596-1.019c-0.662-0.681-0.995-1.606-0.995-2.771c0-0.552,0.085-1.064,0.246-1.534
				c0.163-0.469,0.402-0.874,0.717-1.21c0.314-0.334,0.698-0.592,1.157-0.773c0.444-0.173,0.932-0.262,1.471-0.268v1.295h-0.005
				c-0.463,0-0.845,0.158-1.142,0.478C348.239,771.963,348.058,772.438,347.994,773.065z"/>
			<path style="fill-rule:evenodd;clip-rule:evenodd;" d="M357.955,776.012c0.325-0.001,0.621-0.087,0.891-0.256
				c0.268-0.171,0.484-0.431,0.646-0.784c0.162-0.354,0.242-0.793,0.242-1.317c0-0.499-0.08-0.925-0.242-1.279
				c-0.162-0.358-0.379-0.634-0.655-0.818c-0.267-0.187-0.561-0.279-0.882-0.283v-1.341c0.303,0.043,0.57,0.122,0.803,0.238
				c0.369,0.184,0.727,0.469,1.078,0.85v-2.748c0-0.382,0.076-0.67,0.229-0.866c0.152-0.198,0.368-0.292,0.652-0.292
				c0.281,0,0.497,0.089,0.65,0.271c0.151,0.178,0.228,0.442,0.228,0.792v8.209c0,0.355-0.081,0.621-0.245,0.797
				c-0.163,0.178-0.376,0.266-0.633,0.266c-0.256,0-0.466-0.088-0.633-0.274c-0.165-0.182-0.248-0.447-0.248-0.788v-0.185
				c-0.251,0.288-0.496,0.519-0.74,0.699c-0.244,0.18-0.508,0.315-0.789,0.409c-0.113,0.037-0.23,0.067-0.352,0.089V776.012z
				 M356.176,773.654c0,0.503,0.078,0.932,0.235,1.286c0.157,0.356,0.372,0.621,0.644,0.8c0.273,0.183,0.57,0.271,0.893,0.271h0.008
				v1.387c-0.184,0.033-0.377,0.05-0.58,0.05c-0.445,0-0.858-0.093-1.238-0.281c-0.378-0.188-0.707-0.457-0.984-0.809
				c-0.278-0.347-0.487-0.761-0.631-1.234c-0.143-0.472-0.215-0.983-0.215-1.534c0-1.162,0.282-2.069,0.853-2.72
				c0.568-0.649,1.316-0.975,2.243-0.975c0.195,0,0.38,0.013,0.553,0.037v1.341h-0.022c-0.34,0-0.643,0.095-0.912,0.287
				c-0.269,0.193-0.476,0.474-0.625,0.835C356.248,772.754,356.176,773.177,356.176,773.654z"/>
			<path style="fill-rule:evenodd;clip-rule:evenodd;" d="M370.54,776.011l0.062,0.001c0.467,0,0.871-0.205,1.21-0.611
				c0.34-0.407,0.507-0.989,0.507-1.746c0-0.495-0.068-0.914-0.209-1.273c-0.142-0.352-0.342-0.628-0.602-0.821
				c-0.257-0.192-0.561-0.287-0.906-0.287l-0.062,0.001v-1.34c0.173-0.026,0.356-0.039,0.554-0.039c0.617,0,1.158,0.148,1.625,0.439
				c0.466,0.292,0.827,0.716,1.083,1.277c0.259,0.552,0.386,1.215,0.386,1.977c0,0.567-0.071,1.082-0.215,1.552
				c-0.143,0.469-0.352,0.879-0.624,1.223c-0.272,0.346-0.603,0.615-0.991,0.803c-0.389,0.188-0.816,0.281-1.285,0.281
				c-0.185,0-0.361-0.014-0.532-0.042V776.011z M368.762,773.706c0,0.741,0.168,1.312,0.506,1.708
				c0.327,0.383,0.75,0.583,1.272,0.597v1.396c-0.094-0.015-0.186-0.034-0.276-0.059c-0.251-0.068-0.467-0.159-0.644-0.272
				c-0.177-0.109-0.328-0.224-0.456-0.344c-0.122-0.117-0.287-0.295-0.49-0.531v0.185c0,0.351-0.084,0.615-0.255,0.797
				c-0.167,0.178-0.38,0.266-0.64,0.266c-0.263,0-0.475-0.088-0.631-0.266c-0.157-0.182-0.236-0.446-0.236-0.797v-8.13
				c0-0.372,0.077-0.658,0.229-0.852c0.155-0.196,0.365-0.29,0.639-0.29c0.286,0,0.506,0.091,0.661,0.277
				c0.154,0.184,0.233,0.445,0.233,0.785v2.844c0.349-0.365,0.706-0.643,1.068-0.834c0.232-0.124,0.497-0.208,0.798-0.252v1.34
				c-0.329,0.011-0.624,0.106-0.886,0.286c-0.276,0.193-0.497,0.474-0.656,0.841C368.84,772.769,368.762,773.201,368.762,773.706z"
				/>
			<path style="fill-rule:evenodd;clip-rule:evenodd;" d="M377.215,777.682l0.171-0.416l-2.292-5.768
				c-0.141-0.334-0.212-0.575-0.212-0.721c0-0.158,0.042-0.312,0.125-0.447c0.081-0.137,0.192-0.244,0.337-0.325
				c0.142-0.082,0.292-0.122,0.446-0.122c0.269,0,0.47,0.084,0.606,0.254c0.136,0.171,0.259,0.415,0.362,0.733l1.575,4.582
				l1.491-4.262c0.118-0.347,0.228-0.614,0.321-0.811c0.095-0.195,0.197-0.327,0.305-0.394c0.105-0.069,0.256-0.103,0.452-0.103
				c0.142,0,0.276,0.036,0.405,0.114c0.131,0.072,0.229,0.174,0.299,0.301c0.071,0.127,0.107,0.262,0.107,0.402
				c-0.017,0.082-0.049,0.207-0.088,0.365c-0.041,0.162-0.092,0.326-0.151,0.487l-2.427,6.353c-0.209,0.563-0.413,0.997-0.614,1.314
				c-0.198,0.32-0.463,0.564-0.794,0.734c-0.33,0.171-0.773,0.256-1.332,0.256c-0.545,0-0.954-0.061-1.228-0.177
				c-0.272-0.117-0.409-0.333-0.409-0.647c0-0.215,0.064-0.378,0.193-0.496c0.131-0.119,0.322-0.174,0.578-0.174
				c0.098,0,0.197,0.014,0.293,0.042c0.118,0.026,0.22,0.039,0.307,0.039c0.214,0,0.382-0.031,0.503-0.096
				c0.124-0.06,0.234-0.173,0.331-0.329C376.975,778.217,377.088,777.985,377.215,777.682z"/>
		</g>
		<g>
			<path style="fill-rule:evenodd;clip-rule:evenodd;" d="M419.08,767.525h0.555v-0.698c0-0.727,0.093-1.304,0.279-1.729
				c0.179-0.43,0.493-0.742,0.934-0.938c0.44-0.197,1.041-0.294,1.811-0.294c1.351,0,2.032,0.331,2.032,0.995
				c0,0.213-0.074,0.397-0.215,0.554c-0.143,0.152-0.308,0.231-0.504,0.231c-0.09,0-0.247-0.017-0.468-0.054
				c-0.22-0.033-0.405-0.05-0.561-0.05c-0.421,0-0.689,0.123-0.807,0.368c-0.12,0.248-0.181,0.601-0.181,1.058v0.556h0.57
				c0.887,0,1.33,0.268,1.33,0.8c0,0.378-0.119,0.621-0.354,0.722c-0.237,0.102-0.56,0.159-0.977,0.159h-0.57v6.147
				c0,0.458-0.111,0.809-0.326,1.053c-0.217,0.241-0.5,0.357-0.85,0.357c-0.326,0-0.602-0.116-0.819-0.357
				c-0.218-0.244-0.327-0.595-0.327-1.053v-6.147h-0.639c-0.346,0-0.609-0.082-0.8-0.242c-0.186-0.154-0.282-0.355-0.282-0.604
				C417.914,767.803,418.307,767.525,419.08,767.525z"/>
			<path style="fill-rule:evenodd;clip-rule:evenodd;" d="M427.378,773.411v1.942c0,0.468-0.108,0.825-0.331,1.06
				c-0.222,0.234-0.5,0.35-0.845,0.35c-0.329,0-0.607-0.116-0.822-0.355c-0.216-0.239-0.325-0.59-0.325-1.055v-6.465
				c0-1.048,0.376-1.566,1.129-1.566c0.387,0,0.666,0.122,0.837,0.364c0.173,0.241,0.265,0.604,0.28,1.08
				c0.279-0.476,0.564-0.839,0.855-1.08c0.293-0.242,0.683-0.364,1.171-0.364c0.486,0,0.961,0.122,1.42,0.364
				c0.462,0.241,0.688,0.567,0.688,0.967c0,0.289-0.095,0.52-0.293,0.705c-0.197,0.184-0.404,0.275-0.635,0.275
				c-0.084,0-0.289-0.052-0.615-0.153c-0.326-0.109-0.613-0.161-0.865-0.161c-0.339,0-0.618,0.092-0.832,0.273
				c-0.215,0.175-0.384,0.44-0.504,0.792c-0.117,0.352-0.199,0.771-0.246,1.257C427.399,772.124,427.378,772.716,427.378,773.411z"
				/>
			<path style="fill-rule:evenodd;clip-rule:evenodd;" d="M436.315,771.294h2.106c-0.061-0.793-0.271-1.388-0.642-1.78
				c-0.37-0.394-0.86-0.591-1.465-0.592v-1.616h0.075c0.905,0,1.681,0.188,2.329,0.575c0.651,0.381,1.139,0.875,1.462,1.482
				c0.322,0.605,0.486,1.227,0.486,1.855c0,0.581-0.166,0.964-0.503,1.137c-0.334,0.173-0.802,0.258-1.413,0.258h-2.437V771.294
				L436.315,771.294z M436.315,776.76v-1.542c0.058,0.004,0.116,0.006,0.175,0.006c0.278,0,0.531-0.03,0.762-0.095
				c0.227-0.063,0.453-0.17,0.666-0.31c0.217-0.138,0.416-0.287,0.599-0.445c0.18-0.158,0.418-0.374,0.702-0.644
				c0.121-0.104,0.295-0.157,0.514-0.157c0.236,0,0.43,0.067,0.576,0.197c0.147,0.13,0.221,0.316,0.221,0.552
				c0,0.211-0.078,0.454-0.245,0.738c-0.167,0.28-0.413,0.551-0.741,0.809c-0.333,0.258-0.751,0.469-1.254,0.645
				c-0.503,0.167-1.078,0.251-1.73,0.251C436.477,776.764,436.395,776.763,436.315,776.76z M434.21,771.294h2.105v1.319h-2.105
				c0.009,0.528,0.112,0.991,0.318,1.393c0.208,0.406,0.478,0.708,0.829,0.909c0.292,0.179,0.612,0.277,0.958,0.302v1.542
				c-1.377-0.044-2.457-0.469-3.235-1.272c-0.83-0.85-1.245-2.003-1.245-3.459c0-0.688,0.103-1.326,0.308-1.913
				c0.204-0.585,0.502-1.092,0.893-1.511c0.39-0.417,0.874-0.738,1.449-0.965c0.549-0.216,1.16-0.326,1.831-0.334v1.616h-0.004
				c-0.578,0-1.055,0.196-1.429,0.596C434.514,769.919,434.289,770.511,434.21,771.294z"/>
			<path style="fill-rule:evenodd;clip-rule:evenodd;" d="M446.669,771.294h2.104c-0.059-0.793-0.271-1.388-0.639-1.78
				c-0.373-0.393-0.858-0.591-1.466-0.592v-1.616h0.07c0.911,0,1.689,0.188,2.338,0.575c0.647,0.381,1.138,0.875,1.461,1.482
				c0.323,0.605,0.483,1.227,0.483,1.855c0,0.581-0.17,0.964-0.504,1.137c-0.331,0.173-0.801,0.258-1.41,0.258h-2.439V771.294
				L446.669,771.294z M446.669,776.76v-1.542c0.058,0.004,0.115,0.006,0.175,0.006c0.277,0,0.529-0.03,0.759-0.095
				c0.233-0.063,0.456-0.17,0.668-0.31c0.218-0.138,0.417-0.287,0.599-0.445c0.183-0.158,0.42-0.374,0.709-0.644
				c0.118-0.104,0.281-0.157,0.506-0.157c0.241,0,0.434,0.067,0.581,0.197c0.145,0.13,0.22,0.316,0.22,0.552
				c0,0.211-0.081,0.454-0.244,0.738c-0.166,0.28-0.416,0.551-0.748,0.809c-0.33,0.258-0.748,0.469-1.248,0.645
				c-0.506,0.167-1.08,0.251-1.732,0.251C446.83,776.764,446.749,776.763,446.669,776.76z M444.564,771.294h2.104v1.319h-2.104
				c0.006,0.528,0.113,0.991,0.318,1.393c0.207,0.406,0.482,0.708,0.825,0.909c0.296,0.179,0.615,0.277,0.961,0.302v1.542
				c-1.374-0.044-2.453-0.47-3.236-1.272c-0.829-0.85-1.241-2.003-1.241-3.459c0-0.688,0.104-1.326,0.301-1.913
				c0.209-0.585,0.506-1.092,0.897-1.511c0.388-0.417,0.872-0.738,1.448-0.965c0.554-0.216,1.165-0.326,1.831-0.334v1.616h-0.005
				c-0.579,0-1.053,0.196-1.424,0.596C444.87,769.919,444.64,770.511,444.564,771.294z"/>
			<path style="fill-rule:evenodd;clip-rule:evenodd;" d="M459.44,772.001c0-0.614-0.089-1.139-0.278-1.578
				c-0.188-0.44-0.443-0.781-0.777-1.012c-0.33-0.238-0.697-0.352-1.101-0.352h-0.063v-1.668c0.202-0.034,0.413-0.052,0.632-0.052
				c0.715,0,1.371,0.185,1.975,0.552c0.603,0.371,1.077,0.908,1.427,1.617c0.346,0.706,0.521,1.545,0.521,2.521
				c0,0.713-0.103,1.367-0.301,1.968c-0.202,0.596-0.477,1.102-0.829,1.505c-0.353,0.403-0.766,0.721-1.244,0.938
				c-0.48,0.218-0.998,0.324-1.548,0.324c-0.222,0-0.433-0.015-0.632-0.045v-1.748l0.063,0.001c0.388,0,0.743-0.112,1.071-0.34
				c0.329-0.224,0.593-0.555,0.79-1.006C459.342,773.178,459.44,772.636,459.44,772.001z M457.221,769.059
				c-0.611,0.017-1.133,0.266-1.557,0.756c-0.441,0.504-0.662,1.247-0.662,2.23c0,0.922,0.219,1.639,0.658,2.153
				c0.419,0.5,0.939,0.756,1.561,0.773v1.748c-0.393-0.059-0.74-0.178-1.038-0.354c-0.454-0.266-0.882-0.653-1.292-1.174v3.488
				c0,1.022-0.373,1.531-1.11,1.531c-0.439,0-0.727-0.132-0.871-0.396c-0.142-0.262-0.21-0.649-0.21-1.153v-10.022
				c0-0.442,0.098-0.772,0.286-0.99c0.194-0.216,0.458-0.325,0.795-0.325c0.327,0,0.595,0.109,0.802,0.334
				c0.207,0.225,0.309,0.548,0.309,0.965v0.281c0.443-0.537,0.894-0.935,1.365-1.187c0.296-0.158,0.618-0.268,0.965-0.325V769.059z"
				/>
			<path style="fill-rule:evenodd;clip-rule:evenodd;" d="M465.962,768.638v6.716c0,0.465-0.113,0.815-0.333,1.055
				c-0.221,0.239-0.499,0.355-0.843,0.355c-0.34,0-0.612-0.119-0.829-0.364c-0.213-0.244-0.317-0.595-0.317-1.046v-6.644
				c0-0.458,0.104-0.809,0.317-1.036c0.217-0.234,0.489-0.351,0.829-0.351c0.344,0,0.622,0.116,0.843,0.351
				C465.849,767.9,465.962,768.225,465.962,768.638L465.962,768.638z M464.816,766.242c-0.327,0-0.607-0.104-0.834-0.298
				c-0.227-0.199-0.343-0.48-0.343-0.844c0-0.328,0.118-0.602,0.353-0.813c0.233-0.215,0.509-0.32,0.824-0.32
				c0.297,0,0.565,0.096,0.798,0.287c0.231,0.197,0.348,0.477,0.348,0.846c0,0.357-0.114,0.637-0.341,0.841
				C465.395,766.137,465.124,766.242,464.816,766.242z"/>
			<path style="fill-rule:evenodd;clip-rule:evenodd;" d="M474.147,775.7l-2.054-3.368l-1.261,1.193v1.846
				c0,0.447-0.112,0.791-0.346,1.035c-0.241,0.241-0.512,0.357-0.813,0.357c-0.36,0-0.642-0.116-0.845-0.355
				c-0.206-0.239-0.307-0.59-0.307-1.055v-9.903c0-0.518,0.094-0.911,0.294-1.179c0.203-0.271,0.485-0.404,0.857-0.404
				c0.357,0,0.638,0.117,0.849,0.364c0.208,0.246,0.31,0.604,0.31,1.082v5.634l2.615-2.743c0.325-0.338,0.569-0.571,0.736-0.697
				c0.174-0.124,0.382-0.185,0.623-0.185c0.292,0,0.53,0.089,0.728,0.276c0.188,0.185,0.288,0.414,0.288,0.692
				c0,0.339-0.315,0.796-0.946,1.363l-1.231,1.128l2.379,3.746c0.181,0.277,0.306,0.489,0.379,0.632
				c0.079,0.144,0.114,0.284,0.114,0.411c0,0.373-0.098,0.661-0.302,0.876c-0.201,0.21-0.47,0.316-0.793,0.316
				c-0.285,0-0.505-0.074-0.657-0.227C474.615,776.383,474.408,776.102,474.147,775.7z"/>
			<path style="fill-rule:evenodd;clip-rule:evenodd;" d="M479.889,776.764c-0.351,0-0.653-0.11-0.907-0.341
				c-0.257-0.225-0.389-0.542-0.389-0.955c0-0.342,0.125-0.641,0.367-0.891c0.247-0.248,0.55-0.371,0.904-0.371
				c0.357,0,0.659,0.123,0.914,0.366c0.251,0.247,0.378,0.545,0.378,0.896c0.001,0.407-0.127,0.727-0.378,0.954
				C480.523,776.653,480.229,776.764,479.889,776.764z"/>
			<path style="fill-rule:evenodd;clip-rule:evenodd;" d="M492.135,773.889c0,0.291-0.09,0.599-0.264,0.928
				c-0.172,0.331-0.435,0.642-0.787,0.942c-0.354,0.297-0.803,0.535-1.339,0.715c-0.541,0.184-1.149,0.273-1.824,0.273
				c-1.437,0-2.554-0.42-3.36-1.256c-0.804-0.833-1.21-1.956-1.21-3.36c0-0.959,0.186-1.8,0.556-2.532
				c0.365-0.729,0.902-1.295,1.602-1.692c0.695-0.402,1.529-0.601,2.498-0.601c0.6,0,1.15,0.086,1.654,0.262
				c0.505,0.178,0.927,0.399,1.277,0.684c0.348,0.274,0.615,0.571,0.801,0.886c0.184,0.317,0.274,0.61,0.274,0.881
				c0,0.28-0.103,0.517-0.313,0.708c-0.204,0.192-0.456,0.287-0.75,0.287c-0.194,0-0.357-0.049-0.483-0.148
				c-0.125-0.098-0.27-0.257-0.426-0.481c-0.286-0.429-0.581-0.754-0.891-0.97c-0.308-0.216-0.702-0.32-1.177-0.32
				c-0.687,0-1.239,0.265-1.659,0.803c-0.418,0.536-0.633,1.266-0.633,2.197c0,0.437,0.053,0.84,0.164,1.206
				c0.106,0.363,0.263,0.674,0.469,0.936c0.198,0.254,0.451,0.452,0.738,0.583c0.289,0.136,0.61,0.203,0.953,0.203
				c0.461,0,0.863-0.111,1.195-0.324c0.334-0.218,0.625-0.542,0.882-0.988c0.142-0.262,0.297-0.465,0.461-0.611
				c0.162-0.148,0.362-0.221,0.6-0.221c0.289,0,0.521,0.108,0.708,0.323C492.037,773.418,492.135,773.646,492.135,773.889z"/>
			<path style="fill-rule:evenodd;clip-rule:evenodd;" d="M500.523,772.045c0-0.949-0.213-1.685-0.629-2.213
				c-0.412-0.524-0.964-0.789-1.665-0.793v-1.717c0.702,0.002,1.332,0.117,1.901,0.337c0.571,0.227,1.063,0.549,1.471,0.971
				c0.411,0.423,0.72,0.921,0.93,1.5c0.217,0.579,0.32,1.216,0.32,1.915c0,0.689-0.104,1.327-0.321,1.909
				c-0.218,0.588-0.531,1.089-0.938,1.507c-0.408,0.42-0.893,0.744-1.461,0.972c-0.565,0.221-1.199,0.33-1.901,0.331v-1.728
				c0.701-0.005,1.253-0.267,1.665-0.795C500.31,773.71,500.523,772.977,500.523,772.045z M498.229,769.039l-0.017-0.001
				c-0.451,0-0.852,0.118-1.199,0.352c-0.342,0.239-0.609,0.585-0.801,1.042c-0.184,0.462-0.278,1-0.278,1.612
				c0,0.607,0.093,1.136,0.278,1.59c0.184,0.453,0.447,0.799,0.788,1.041c0.345,0.24,0.749,0.359,1.212,0.359h0.017v1.728h-0.017
				c-0.698,0-1.333-0.11-1.897-0.341c-0.559-0.225-1.044-0.548-1.459-0.972c-0.408-0.424-0.723-0.923-0.93-1.497
				c-0.217-0.576-0.324-1.213-0.324-1.909c0-0.705,0.107-1.348,0.329-1.935c0.211-0.582,0.522-1.082,0.92-1.497
				c0.404-0.412,0.894-0.732,1.464-0.957c0.576-0.225,1.207-0.334,1.897-0.334h0.017V769.039z"/>
			<path style="fill-rule:evenodd;clip-rule:evenodd;" d="M512.408,772.214v3.086c0,0.488-0.111,0.855-0.334,1.1
				c-0.218,0.245-0.512,0.364-0.877,0.364c-0.35,0-0.636-0.119-0.854-0.364c-0.219-0.244-0.328-0.611-0.328-1.1v-3.7
				c0-0.587-0.022-1.032-0.06-1.359c-0.04-0.325-0.147-0.59-0.324-0.796c-0.173-0.209-0.453-0.308-0.833-0.308
				c-0.759,0-1.259,0.258-1.498,0.778c-0.241,0.523-0.361,1.271-0.361,2.247v3.138c0,0.484-0.113,0.846-0.334,1.094
				c-0.213,0.247-0.503,0.37-0.859,0.37c-0.351,0-0.638-0.123-0.865-0.37c-0.225-0.248-0.336-0.609-0.336-1.094v-6.647
				c0-0.434,0.102-0.767,0.302-0.994c0.204-0.221,0.47-0.337,0.796-0.337c0.317,0,0.585,0.105,0.795,0.317
				c0.215,0.213,0.32,0.509,0.32,0.882v0.221c0.404-0.481,0.834-0.836,1.293-1.065c0.461-0.223,0.971-0.338,1.531-0.338
				c0.586,0,1.087,0.115,1.504,0.348c0.421,0.232,0.771,0.585,1.04,1.056c0.392-0.475,0.813-0.831,1.26-1.06
				c0.446-0.228,0.944-0.344,1.491-0.344c0.633,0,1.181,0.126,1.639,0.371c0.46,0.257,0.801,0.61,1.027,1.072
				c0.203,0.424,0.301,1.084,0.301,1.985v4.532c0,0.488-0.115,0.855-0.335,1.1c-0.216,0.245-0.507,0.364-0.874,0.364
				c-0.348,0-0.639-0.123-0.861-0.37c-0.227-0.248-0.338-0.609-0.338-1.094v-3.904c0-0.496-0.019-0.898-0.061-1.202
				c-0.046-0.297-0.158-0.552-0.347-0.753c-0.185-0.205-0.472-0.304-0.852-0.304c-0.307,0-0.594,0.09-0.87,0.271
				c-0.272,0.179-0.489,0.425-0.645,0.731C512.492,770.528,512.408,771.219,512.408,772.214z"/>
			<path style="fill-rule:evenodd;clip-rule:evenodd;" d="M400.779,761.334c-0.047-0.151-0.096-0.298-0.145-0.446
				c0.778-0.072,1.304-1.008,0.922-1.7c-0.185-0.415-0.611-0.637-1.039-0.646h-0.051c-0.361,0.006-0.718,0.164-0.926,0.485
				c-0.497,0.631-0.11,1.632,0.652,1.838c0.046,0.156,0.091,0.317,0.14,0.482c-1.17,0.076-2.363,0.338-3.345,1.006
				c0.102,0.277,0.203,0.565,0.303,0.853c1.979-0.869,4.199-0.682,6.287-0.473c0.068-0.275,0.138-0.552,0.209-0.827
				C402.843,761.48,401.807,761.325,400.779,761.334z"/>
			<path style="fill-rule:evenodd;clip-rule:evenodd;" d="M412.552,764.527c-0.312,0.161-0.373,0.538-0.353,0.853
				c-0.35,0.34-0.185,0.85-0.222,1.274c-0.079,0.237-0.364,0.265-0.563,0.353c-0.272-0.414-0.563-0.815-0.931-1.156l0.004-0.02
				c-0.399-0.374-0.831-0.715-1.287-1.011c-0.364,0.393-0.749,0.777-1.1,1.186c0.695,0.767,1.34,1.589,1.909,2.454
				c0.393,0.661,0.708,1.361,0.979,2.079c0.589-0.301,1.17-0.615,1.761-0.928c-0.312-0.716-0.664-1.418-1.045-2.107
				c0.264-0.14,0.611-0.274,0.652-0.615c0.03-0.377-0.055-0.783,0.171-1.113c0.455,0.298,1.147-0.036,1.153-0.591
				C413.742,764.615,413.021,764.206,412.552,764.527z"/>
			<path style="fill-rule:evenodd;clip-rule:evenodd;" d="M407.936,769.289c-0.14,0.957-1.05,1.767-2.026,1.708v3.835
				c1.793-0.482,3.526-1.189,5.129-2.13c0,0-0.338-1.867-1.668-3.903c-0.767-1.272-1.598-2.538-2.726-3.518
				c-0.233-0.205-0.479-0.399-0.735-0.578v2.217c0.246,0.006,0.492,0.053,0.729,0.109
				C407.535,767.346,408.121,768.357,407.936,769.289z M405.91,770.997l-0.008-0.001c-0.564,0.047-1.11-0.221-1.495-0.62
				c-0.275-0.343-0.504-0.737-0.541-1.187c-0.134-0.972,0.552-1.976,1.503-2.204c0.178-0.052,0.359-0.07,0.541-0.066v-2.217
				c-1.176-0.82-2.578-1.339-4.019-1.332c-1.775-0.021-3.57,0.203-5.263,0.75v2.107c0.313,0.001,0.626,0.045,0.928,0.129
				c0.342,0.087,0.656,0.245,0.949,0.443c0.604,0.426,1.059,1.058,1.26,1.772c0.281,0.918,0.103,1.945-0.432,2.738
				c-0.386,0.56-0.937,0.991-1.57,1.236c-0.362,0.135-0.748,0.201-1.135,0.2v2.845l0.09,0.005c2.077,0.063,4.17,0.115,6.232-0.177
				c0.997-0.13,1.986-0.326,2.959-0.588V770.997z M396.629,764.12v2.107c-0.535-0.002-1.068,0.121-1.541,0.377
				c-0.982,0.523-1.674,1.566-1.72,2.685c-0.065,0.897,0.291,1.788,0.89,2.448c0.599,0.661,1.485,1.01,2.371,1.01v2.845
				c-2.075-0.107-4.121-0.556-6.134-1.06c-0.368-1.864-0.379-3.882,0.439-5.635c0.849-1.949,2.521-3.459,4.45-4.308
				C395.791,764.413,396.207,764.256,396.629,764.12z"/>
			<path style="fill-rule:evenodd;clip-rule:evenodd;" d="M390.959,765.958c-0.83,0.5-1.512,1.206-2.08,1.984
				c-0.166-0.31-0.217-0.677-0.434-0.953c-0.123-0.165-0.345-0.098-0.518-0.101c-0.221,0.024-0.434-0.036-0.642-0.099
				c0.241-0.342,0.179-0.865-0.193-1.088c-0.398-0.286-1.012-0.038-1.116,0.435c-0.168,0.518,0.385,1.036,0.892,0.901
				c0.27,0.4,0.756,0.334,1.172,0.35c0.187,0.322,0.329,0.679,0.567,0.972c-0.445,0.876-0.696,1.858-0.715,2.843
				c0.57,0.237,1.14,0.482,1.715,0.72c0.027-0.624,0.099-1.238,0.193-1.846c0.191-1.334,0.963-2.493,1.877-3.448
				C391.449,766.39,391.197,766.183,390.959,765.958z"/>
			<path style="fill-rule:evenodd;clip-rule:evenodd;" d="M404.308,776.003c-2.104,0.46-4.275,0.595-6.427,0.501
				c-1.454-0.074-2.908-0.21-4.331-0.523c-1.006-0.204-1.992-0.496-2.984-0.78c0.159,1.266,0.671,2.477,1.401,3.521
				c0.862,1.212,2.015,2.325,3.45,2.774c1.05,0.281,2.291,0.639,4.336,0.648h0.207l0.213-0.003c1.902-0.033,3.772-0.274,5.441-0.985
				c1.076-0.462,2.087-1.094,2.954-1.883c0.748-0.707,1.336-1.587,1.741-2.532c0.392-0.893,0.744-2.5,0.706-3.32
				C408.956,774.591,406.653,775.61,404.308,776.003z"/>
		</g>
	</g>
	<g>
		<g>
			<g>
				<path style="fill-rule:evenodd;clip-rule:evenodd;fill:#1C0100;" d="M413.938,409.333
					c12.638-63.186,82.582-197.715,163.774-255.11c81.192-57.396,137.484-73.21,147.137-33.766
					c9.653,39.445-46.752,66.954-49.172,116.736c-2.419,49.781,24.482,140.027-16.469,148.702
					c-40.949,8.676-100.511,21.294-119.839,27.982c-19.329,6.689,113.74,4.425,131.362,44.776
					c17.623,40.351,2.209,41.021,6.415,60.877c4.206,19.854-21.064,29.096-18.814,51.958s-21.924,18.909-21.44,39.551
					c0.482,20.642-23.357,24.396-25.165,40.338c-1.809,15.942-29.184,15.261-37.796,23.566c-8.611,8.305-21.284,9.695-46.584-5.69
					c-25.301-15.386-47.592-28.814-76.459-73.264C422.023,551.54,400.767,475.192,413.938,409.333z"/>
				<path style="fill-rule:evenodd;clip-rule:evenodd;fill:#8C796C;" d="M413.938,409.332
					c11.056-65.553,86.307-188.833,169.75-242.853c66.966-57.411,87.897-4.669,47.478,16.878
					c-71.725,38.233-150.236,119.483-167.359,185.201c17.605-25.74,46.879-91.119,175.923-165.612
					c28.851-16.654,52.847-32.889,36.352,4.007c-4.285,9.582-11.252,23.215-11.352,34.999c-0.236,28.252,2.529,28.512-33.989,46.598
					C568.446,319.4,498.5,362.836,478.624,382.136c19.729-10.146,61.155-45.762,140.558-75.881
					c14.328-5.435,32.13-11.135,32.307,15.544c0.211,31.875-6.394,54.847-28.906,62.305
					c-39.982,13.245-122.474,28.335-141.801,35.022c-19.331,6.69,126.336,18.861,153.993,35.428
					c27.455,16.446,34.701,55.932-15.93,30.919c-42.129-20.813-91.456-40.686-127.806-39.1
					c31.153,7.656,76.617,15.682,135.739,47.299c58.919,31.509,12.707,48.524-8.784,33.549
					c-51.087-35.601-113.251-60.513-147.98-56.094c35.014,4.275,119.119,37.994,172.31,77.633c5.269,3.927,5.957,5.115,7.318,18.938
					c1.654,16.801-10.406,17.185-18.336,9.945c-39.413-35.982-95.19-67.812-131.833-74.549
					c40.956,17.771,89.906,50.03,123.19,79.122c8.686,7.592,5.564,5.977,5.93,21.568c0.176,7.507-2.679,12.018-7.187,14.233
					c-5.352,2.63-10.797,4.779-18.679-4.707c-41.047-49.4-99.507-105.416-143.281-124.424
					c34.451,18.916,95.23,80.161,136.902,137.383c4.18,5.737,7.483,11.999,0.808,17.007c-12.501,9.375-14.61,0.127-20.198-9.148
					c-26.968-44.767-69.014-87.181-102.181-106.698c23.122,25.299,43.674,44.37,74.691,90.707
					c29.094,43.466-14.084,27.988-25.568,24.626c-13.959-4.088-42.941-12.846-71.287-49.518
					C424.268,556.573,402.769,475.559,413.938,409.332z"/>
				<path style="fill-rule:evenodd;clip-rule:evenodd;" d="M412.308,465.477c-9.721-55.725,17.626-110.921,35.479-131.42
					c17.855-20.499,28.949-17.194,25.065,3.928c-3.884,21.121-4.61,17.693,12.706,9.248c17.315-8.444,7.719,13.888,3.283,26.768
					c-4.437,12.88,14.051,26.875-4.824,39.231c-18.875,12.357,11.312,47.754-3.234,58c-14.547,10.245-24.279,20.666-17.878,39.608
					C469.307,529.783,431.584,575.972,412.308,465.477z"/>
				<path style="fill-rule:evenodd;clip-rule:evenodd;" d="M599.906,301.883c-20.317,1.609-30.838-8.907-44.192,5.502
					c-13.354,14.409-12.125,24.765-27.825,28.091c-15.701,3.326-28.021,27.168-6.669,32.295c21.352,5.127,20.82,7.169,24.491-11.944
					c3.671-19.113,40.692-3.796,50.492-21.313C606.004,316.997,623.454,300.017,599.906,301.883z"/>
				<path style="fill-rule:evenodd;clip-rule:evenodd;" d="M629.719,463.388c-14.168-11.166-56.151-3.348-45.369,13.697
					c10.783,17.045-26.716,45.374-48.463,39.081c-8.99-2.601,18.731,16.39,25.242,36.577c4.303,13.338-7.78,29.592-20.444,30.914
					c-41.429,4.325,2.876,54.127,28.806,19.178c11.813-15.922-1.834-41.17,12.947-50.887c14.781-9.719,47.962-12.057,40.456-35.066
					C615.387,493.872,650.881,480.066,629.719,463.388z"/>
				<path style="fill-rule:evenodd;clip-rule:evenodd;" d="M654.4,164.89c-17.842-3.66-46.666,6.454-51.712,25.822
					c-5.046,19.366-51.246,28.01-35.831,52.191c15.415,24.182,33.967-23.206,59.836-25.256
					C652.563,215.598,685.572,171.282,654.4,164.89z"/>
				<path style="fill-rule:evenodd;clip-rule:evenodd;" d="M545.362,445.977c4.595,15.973-4.733,27.293-22.176,19.42
					c-17.441-7.872-19.966-34.679-1.364-31.259C540.425,437.559,541.494,432.528,545.362,445.977z"/>
				<path style="fill-rule:evenodd;clip-rule:evenodd;" d="M530.169,615.561c-15.302,1.783-20.44,16.772-1.319,18.941
					C547.971,636.672,552.636,612.943,530.169,615.561z"/>
				<path style="fill-rule:evenodd;clip-rule:evenodd;" d="M643.151,515.482c-6.439,0.511-8.111,9.003,0.084,10.908
					C651.432,528.296,652.605,514.733,643.151,515.482z"/>
				<path style="fill-rule:evenodd;clip-rule:evenodd;" d="M631.244,549.19c-11.025,0.739-13.614,16.506,0.503,20.326
					C645.865,573.336,647.433,548.105,631.244,549.19z"/>
				<path style="fill-rule:evenodd;clip-rule:evenodd;" d="M604.997,585.636c-8.409,2.607-5.294,18.363,7.03,19.656
					C624.352,606.586,617.345,581.81,604.997,585.636z"/>
				<path style="fill-rule:evenodd;clip-rule:evenodd;fill:#1C0100;" d="M585.048,624.786c-6.681,2.069-4.206,14.589,5.586,15.617
					C600.426,641.431,594.858,621.747,585.048,624.786z"/>
				<path style="fill-rule:evenodd;clip-rule:evenodd;" d="M620.764,232.128c-19.453,1.303-18.022,25.112,6.888,31.853
					C652.561,270.721,649.326,230.213,620.764,232.128z"/>
				<path style="fill-rule:evenodd;clip-rule:evenodd;fill:#FBF1D8;" d="M599.47,364.077v-13.638
					c3.772-3.036,6.608-7.465,9.038-13.813c6.656-17.392,19.61-36.118,30.567-24.338c6.786,9.844,3.96,55.417-7.976,59.977
					C598.863,384.578,609.303,361.691,599.47,364.077L599.47,364.077z M599.47,292.287V246.84c0.966,0.668,2.003,2.085,3.198,4.534
					c6.648,13.634,28.265,26.916,38.245,16.341c9.981-10.576,8.075-19.573,4.888-30.179c-3.187-10.606-6.839-14.533,1.914-22.028
					c8.754-7.495,27.16-22.676,21.158-11.064c-3.301,11.041-16.721,36.446-14.242,48.143c2.479,11.697-4.994,20.801-27.244,31.154
					C614.763,289.616,606.801,291.78,599.47,292.287L599.47,292.287z M599.47,180.321v-12.696
					c11.89-7.293,23.305-11.941,29.367-10.164c18.185-2.913-13.771,10.438-28.25,21.967
					C600.199,179.735,599.83,180.032,599.47,180.321z M501.495,253.066c11.178-0.487,15.677-1.441,5.993,19.412
					c-2.094,4.507-4.792,7.604-7.667,9.801v-28.746C500.46,253.184,501.025,253.013,501.495,253.066L501.495,253.066z
					 M599.47,167.625c-13.668,8.383-27.963,20.261-35.474,29.895c-14.046,18.018-47.419,33.548-43.66,46.854
					s39.672-16.865,55.326-36.163c15.234-18.783,10.713-17.351,23.808-27.89V167.625L599.47,167.625z M599.47,246.84v45.447
					c-5.589,0.388-10.81-0.188-17.45-0.814c-15.349-1.448-15.645-11.727-17.171-18.925c-1.524-7.197,6.001-11.612,17.697-14.091
					C592.141,256.425,595.06,243.792,599.47,246.84L599.47,246.84z M599.47,350.439v13.638c-0.314,0.076-0.649,0.178-1.007,0.308
					c-13.26,4.813,2.016,24.709-27.348,30.929c-10.797,2.288-26.244-39.564-2.607-38.932
					C583.518,356.784,592.908,355.721,599.47,350.439L599.47,350.439z M499.821,410.339c7.737-0.659,22.018-3.795,31.692-5.844
					c20.694-4.385,20.548-19.246,17.551-28.952c-0.815-8.288-19.633,0.366-30.345-5.825c-5.268-3.044-13.233-1.05-18.898,3.924
					V410.339L499.821,410.339z M499.821,340.345c6.386,3.447,6.037,12.777,9.731,3.824c3.999-9.692,19.83-4.849,29.949-19.214
					c10.117-14.364,16.373-32.645,12.805-45.05c-1.251-14.776-36.367,19.862-49.703,36.788c-0.607,0.771-1.593,1.954-2.782,3.388
					V340.345z M499.821,282.279c-10.425,7.967-23.162,4.072-17.693,12.494c6.977,10.743,2.013,18.375-2.241,24.918
					c-4.255,6.542-17.502-7.388-21.948-1.746c-4.204,5.336,30.746-58.324,41.883-64.412V282.279L499.821,282.279z M499.821,320.081
					c-6.384,7.694-18.653,22.615-9.969,19.939c4.522-1.394,7.679-0.913,9.969,0.324V320.081L499.821,320.081z M499.821,373.642
					v36.697c-4.656,0.398-6.943-0.102-4.432-2.274c4.88-4.22,2.037-7.131-0.231-11.7
					C490.566,387.113,493.965,378.784,499.821,373.642z"/>
				<path style="fill-rule:evenodd;clip-rule:evenodd;fill:#FBF1D8;" d="M636.119,489.448c7.563,0.994,18.197,2.2,16.381-4.335
					c-1.817-6.534-5.062-21.85-20.148-27.735c-15.087-5.887-46.301-14.41-58.855-16.508c-12.555-2.098-30.45-6.957-26.891-0.358
					c3.561,6.598-1.357,11.965,13.968,16.935c15.325,4.971,19.464,4.094,28.308,0.923c8.843-3.171,27.994-4.634,38.09,0.147
					c10.096,4.781,16.554,10.766,13.076,18.854C636.571,485.46,630.06,489.434,636.119,489.448z"/>
				<path style="fill-rule:evenodd;clip-rule:evenodd;fill:#FBF1D8;" d="M512.644,431.271c-2.07,0.438-6.311,6.959-5.434,11.099
					c0.876,4.14-9.02,2.344-14.575,2.655c-5.557,0.313-9.87,0.361-11.099-5.434c-1.227-5.795-1.389-12.681-1.326-14.424
					c0.064-1.743,9.657,2.712,16.631,2.965C503.814,428.385,517.197,430.308,512.644,431.271z"/>
				<path style="fill-rule:evenodd;clip-rule:evenodd;fill:#FBF1D8;" d="M629.745,498.151c5.191,4.09,16.64,11.18,20.854,16.775
					c4.212,5.595-0.415,0.088-8.152-1.733c-7.738-1.82-9.271,9.316-5.496,12.842c3.774,3.525-4.179,4.777-8.343,3.497
					c-4.163-1.28-3.472-6.184-4.022-10.825C624.034,514.065,624.827,503.518,629.745,498.151z"/>
				<path style="fill-rule:evenodd;clip-rule:evenodd;fill:#FBF1D8;" d="M580.271,474.898c1.881,4.791,1.994,7.362,1.391,12.681
					c-0.605,5.317-3.842,12.49-14.965,4.899c-11.123-7.59-29.194-13.276-41.598-16.704c-12.403-3.427-33.762-6.254-36.659-5.641
					c-2.897,0.614,1.081-7.148,0.028-12.115c-1.053-4.968-3.021-10.173-3.021-10.173s15.038,1.572,19.878,4.006
					c4.841,2.435,10.393,16.395,19.286,17.538c8.892,1.145,15.802,3.141,19.239-1.048
					C547.289,464.153,563.354,468.535,580.271,474.898z"/>
				<path style="fill-rule:evenodd;clip-rule:evenodd;fill:#FBF1D8;" d="M639.607,577.37c4.968-1.053,8.381-7.398,7.567-13.28
					c-0.814-5.883-1.716-12.179-12.901-18.026c-11.186-5.848-13.869-8.307-13.869-8.307s-11.541,6.771-16.094,7.734
					c-4.554,0.965-1.193,4.577,4.563,7.251c5.757,2.673,9.97,8.268,12.555,2.098c2.585-6.17,7.051-7.549,11.453-7.184
					c4.401,0.364,11.6,5.76,12.111,14.301C645.505,570.498,632.547,576.703,639.607,577.37z"/>
				<path style="fill-rule:evenodd;clip-rule:evenodd;fill:#FBF1D8;" d="M562.141,507.716c-3.638,1.203-19.932,5.953-27.518,2.803
					c-7.587-3.149-31.94-13.992-36.08-13.115c-4.14,0.877-6.861,2.318,2.518,9.846c9.38,7.528,35.19,15.035,41.496,22.349
					c6.307,7.313,13.93,20.835,15.156,26.63c1.229,5.795-14.57-11.617-21.141-20.173c-6.569-8.556-4.111-11.238-12.501-12.056
					c-8.391-0.817-19.124-10.653-24.905-15.483c-5.78-4.83-11.56-9.66-17.819-12.659c-6.257-2.999-15.149-4.143-8.337-10.775
					c6.811-6.634,11.866-7.272,20.871-3.558C502.885,485.238,542.227,493.338,562.141,507.716z"/>
				<path style="fill-rule:evenodd;clip-rule:evenodd;fill:#FBF1D8;" d="M586.396,560.964c6.021,3.915,27.263,18.443,31.952,22.208
					c4.69,3.763,8.626,14.175,7.633,21.737c-0.993,7.563-7.591,11.122-13.41,10.193c-5.819-0.93-5.343-2.761,2.497-6.584
					c7.841-3.823,8.356-9.555,4.884-15.739c-3.474-6.185-8.865-13.259-17.62-9.675c-8.755,3.585-5.258,11.926-1.547,17.195
					c3.712,5.268-7.801-0.078-15.486-11.857C577.613,576.665,579.848,568.839,586.396,560.964z"/>
				<path style="fill-rule:evenodd;clip-rule:evenodd;fill:#FBF1D8;" d="M478.548,505.099c6.346,3.413,31.675,27.024,37.718,33.096
					c6.045,6.072,0.951,10.611,9.941,20.384c8.99,9.773,4.354-3.95,12.642,2.512c8.289,6.461,14.244,12.119,9.541,14.413
					c-4.704,2.294-2.56,8.327-10.109,1.277c-7.548-7.051-26.77-26.333-39.159-35.818c-12.39-9.485-17.129-17.563-24.842-17.227
					c-7.714,0.337-9.671,3.346,0.035,10.372c9.705,7.026,18.721,18.956,26.294,28.164c7.571,9.208,18.958,18.041,16.436,22.468
					c-2.522,4.426,0.361,9.87,5.012,17.535c4.651,7.664-1.757,5.994-5.058,14.91c-3.301,8.917-5.083,12.755-13.786,6.381
					c-8.702-6.374-18.345-15.143-23.736-22.218s30.668-10.39,14.82-32.117c-15.848-21.727-13.467,34.425-23.484,21.843
					c-10.018-12.582-21.375-33.53-26.328-38.536c-4.953-5.006-7.285-5.81,3.125-9.745c10.411-3.936,15.29-5.401,17.978-17.216
					C468.273,513.763,464.542,492.064,478.548,505.099z"/>
				<path style="fill-rule:evenodd;clip-rule:evenodd;fill:#FBF1D8;" d="M549.417,629.347c3.321,7.514,5.903,15.617-2.662,13.972
					c-8.566-1.646-16.305-3.467-9.355-5.371C544.349,636.043,550.56,620.454,549.417,629.347z"/>
				<path style="fill-rule:evenodd;clip-rule:evenodd;fill:#FBF1D8;" d="M576.733,607.558c3.408,2.513,14.122,10.666,9.021,13.658
					c-6.385,0.488-5.522,10.685-7.791,8.139c-2.27-2.547-6.468-14.2-9.477-16.157C565.476,611.24,574.332,602.011,576.733,607.558z"
					/>
				<path style="fill-rule:evenodd;clip-rule:evenodd;fill:#2E2824;" d="M434.183,363.512c7.16-13.719,27.069-44.462,29.458-29.548
					c2.389,14.914,0.15,26.183-6.109,22.111c-6.259-4.07-8.698,2.613-13.507,9.029c-4.81,6.416-2.107,22.806,5.921,13.395
					c8.03-9.41,22.656-24.074,26.902-14.951c4.246,9.124-0.633,22.493-16.865,25.933c-16.234,3.44-31.26,8.935-34.818,21.254
					C421.605,423.054,418.604,393.358,434.183,363.512z"/>
				<path style="fill-rule:evenodd;clip-rule:evenodd;fill:#2E2824;" d="M473.034,399.836c1.188,10.476,1.318,25.131-8.413,21.261
					c-9.73-3.871-22.148-10.962-29.214-0.813c-7.065,10.149,1.038,23.656,9.187,15.564c8.148-8.091,29.697-3.926,25.64,14.765
					c-4.058,18.69-13.911,28.727-16.959,16.339c-3.047-12.388-16.268-20.059-24.175-14.339c-7.907,5.722,3.361,43.154,9.017,51.07
					c5.657,7.916,20.006-3.951,15.91,10.894c-4.097,14.845-15.815,11.443-23.614-11.388c-7.801-22.83-13.934-51.451-10.117-67.772
					s10.219-26.314,26.493-31.697C463.061,398.335,472.169,392.204,473.034,399.836z"/>
				<path style="fill-rule:evenodd;clip-rule:evenodd;fill:#2E2824;" d="M703.881,116.795c-15.066-5.144-43.05-4.415-48.568,4.415
					c-5.519,8.83,9.934,17.662,11.037,28.699c1.104,11.039-18.765,34.219-33.113,34.219c-14.35,0-17.662,29.803,2.207,17.661
					c19.868-12.142,11.038-17.661,27.596-27.596c16.557-9.935,24.284,8.831,32.011-4.415c7.727-13.246-3.312-7.727-3.312-22.076
					C691.738,133.352,734.814,127.358,703.881,116.795z"/>
				<path style="fill-rule:evenodd;clip-rule:evenodd;fill:#2E2824;" d="M627.717,240.423c-10.971,1.219-11.039,13.246,3.311,13.246
					C645.378,253.669,636.764,239.418,627.717,240.423z"/>
				<path style="fill-rule:evenodd;clip-rule:evenodd;fill:#2E2824;" d="M664.167,288.053c-9.999,2.381-20.318,9.378-8.596,21.1
					c11.722,11.723,10.159,30.478,1.563,42.98c-8.596,12.503-15.63,30.478-1.563,26.57c14.065-3.908,15.629-14.066,17.191-23.444
					c1.563-9.378-10.158-3.125-9.377-12.503c0.781-9.378,10.94-21.1,9.377-32.822C671.2,298.212,672.248,286.129,664.167,288.053z"
					/>
				<path style="fill-rule:evenodd;clip-rule:evenodd;fill:#2E2824;" d="M618.06,467.79c-12.504-0.782-21.881-0.001-21.881,10.94
					c0,10.94,0,20.317-10.94,28.132c-10.94,7.815-17.974,14.067-15.63,21.882c2.345,7.815,17.975,13.285,32.822,1.563
					c14.848-11.722-21.881,4.688-13.285-10.94c8.596-15.629,24.226,3.907,26.57-13.285C618.06,488.89,639.941,467.008,618.06,467.79
					z"/>
				<path style="fill-rule:evenodd;clip-rule:evenodd;fill:#2E2824;" d="M565.702,572.506c0,7.815-4.688,33.604-20.317,32.821
					c-15.63-0.781-14.066-10.159,0.781-14.848C561.014,585.79,569.609,560.784,565.702,572.506z"/>
				<path style="fill-rule:evenodd;clip-rule:evenodd;fill:#2E2824;" d="M538.531,441.116c-5.616,0-4.413,12.835-12.033,12.835
					c-7.621,0-0.803-14.038-8.022-14.038c-7.22,0-4.412,24.467,12.835,24.066C548.559,463.578,543.745,439.913,538.531,441.116z"/>
				<path style="fill-rule:evenodd;clip-rule:evenodd;fill:#2E2824;" d="M644.547,518.202c-3.929,0.311-4.949,5.493,0.051,6.656
					C649.6,526.021,650.315,517.745,644.547,518.202z"/>
				<path style="fill-rule:evenodd;clip-rule:evenodd;fill:#2E2824;" d="M632.715,556.649c-6.058,0.48-7.631,8.471,0.08,10.264
					C640.506,568.706,641.611,555.944,632.715,556.649z"/>
				<path style="fill-rule:evenodd;clip-rule:evenodd;fill:#2E2824;" d="M607.044,587.124c-6.058,0.314-7.631,5.53,0.08,6.701
					C614.836,594.995,615.94,586.664,607.044,587.124z"/>
				<path style="fill-rule:evenodd;clip-rule:evenodd;fill:#2E2824;" d="M591.279,628.438c-3.077,0.313-3.876,5.53,0.041,6.701
					C595.236,636.309,595.797,627.977,591.279,628.438z"/>
				<path style="fill-rule:evenodd;clip-rule:evenodd;fill:#2E2824;" d="M527.926,619.624c-8.303,0.498-10.46,8.777,0.109,10.635
					C538.605,632.117,540.119,618.893,527.926,619.624z"/>
				<path style="fill-rule:evenodd;clip-rule:evenodd;fill:#2E2824;" d="M659.638,462.102
					c12.909,15.257,15.257,18.777,12.909,28.753c-2.347,9.976,1.761,26.406-2.347,32.86c-4.108,6.455-7.628,16.431-14.083,15.257
					c-6.455-1.174,7.628-5.281,7.041-19.951c-0.587-14.67,0-26.405-3.521-36.381S649.075,452.126,659.638,462.102z"/>
				<path style="fill-rule:evenodd;clip-rule:evenodd;fill:#2E2824;" d="M580.42,656.331c-8.862-4.835-26.406-2.348-34.621-1.174
					c-8.215,1.174-35.794-9.976-24.059-1.174c11.736,8.802,32.426,18.478,38.143,12.322
					C567.511,658.092,591.04,662.123,580.42,656.331z"/>
			</g>
			<g>
				<path style="fill-rule:evenodd;clip-rule:evenodd;fill:#1C0100;" d="M385.982,409.332
					c-12.638-63.185-82.582-197.714-163.775-255.109C141.015,96.826,84.724,81.013,75.07,120.457
					c-9.653,39.445,46.752,66.954,49.172,116.736c2.42,49.781-24.48,140.027,16.47,148.702
					c40.949,8.676,100.51,21.294,119.839,27.982c19.328,6.689-113.74,4.426-131.363,44.776s-2.208,41.021-6.415,60.877
					c-4.206,19.854,21.065,29.096,18.814,51.958c-2.249,22.862,21.925,18.909,21.442,39.551
					c-0.484,20.642,23.354,24.396,25.164,40.338c1.809,15.942,29.184,15.261,37.795,23.565c8.611,8.307,21.285,9.696,46.584-5.689
					c25.301-15.386,47.593-28.814,76.459-73.264C377.896,551.54,399.154,475.192,385.982,409.332z"/>
				<path style="fill-rule:evenodd;clip-rule:evenodd;fill:#8C796C;" d="M385.982,409.332
					c-11.057-65.553-86.308-188.833-169.751-242.853c-66.966-57.411-87.897-4.669-47.478,16.878
					c71.725,38.233,150.237,119.483,167.359,185.201c-17.605-25.74-46.879-91.119-175.922-165.612
					c-28.852-16.654-52.848-32.889-36.353,4.007c4.285,9.582,11.253,23.215,11.352,34.999c0.236,28.252-2.529,28.512,33.99,46.598
					c62.295,30.851,132.24,74.286,152.117,93.586c-19.73-10.146-61.155-45.762-140.559-75.881
					c-14.328-5.435-32.129-11.135-32.307,15.544c-0.211,31.875,6.396,54.847,28.907,62.305
					c39.981,13.245,122.473,28.335,141.801,35.022c19.33,6.69-126.337,18.861-153.993,35.428
					c-27.455,16.446-34.702,55.932,15.929,30.919c42.13-20.813,91.457-40.686,127.807-39.1
					c-31.153,7.656-76.618,15.682-135.74,47.299c-58.919,31.509-12.707,48.524,8.784,33.549
					c51.087-35.601,113.252-60.513,147.98-56.094c-35.014,4.275-119.119,37.994-172.31,77.633c-5.27,3.927-5.958,5.115-7.319,18.938
					c-1.653,16.801,10.406,17.185,18.336,9.945c39.413-35.982,95.19-67.812,131.834-74.549
					c-40.957,17.771-89.906,50.03-123.191,79.122c-8.686,7.592-5.564,5.977-5.929,21.568c-0.176,7.507,2.679,12.018,7.187,14.233
					c5.351,2.63,10.796,4.779,18.679-4.707c41.047-49.4,99.507-105.416,143.28-124.424c-34.45,18.916-95.23,80.161-136.902,137.383
					c-4.179,5.737-7.483,11.999-0.807,17.007c12.501,9.375,14.61,0.127,20.197-9.148c26.968-44.767,69.015-87.181,102.181-106.698
					c-23.122,25.299-43.673,44.37-74.69,90.707c-29.094,43.466,14.084,27.988,25.568,24.626
					c13.959-4.088,42.941-12.846,71.287-49.518C375.653,556.573,397.152,475.559,385.982,409.332z"/>
				<path style="fill-rule:evenodd;clip-rule:evenodd;" d="M387.612,465.477c9.722-55.725-17.626-110.921-35.48-131.42
					c-17.853-20.499-28.949-17.194-25.065,3.928c3.884,21.121,4.61,17.693-12.705,9.248c-17.316-8.444-7.719,13.888-3.283,26.768
					c4.436,12.88-14.052,26.875,4.823,39.231c18.875,12.357-11.31,47.754,3.235,58c14.546,10.245,24.279,20.666,17.878,39.608
					C330.613,529.783,368.337,575.972,387.612,465.477z"/>
				<path style="fill-rule:evenodd;clip-rule:evenodd;" d="M200.014,301.883c20.316,1.609,30.839-8.907,44.191,5.502
					c13.354,14.409,12.125,24.765,27.826,28.091c15.7,3.326,28.021,27.168,6.669,32.295c-21.353,5.127-20.82,7.169-24.491-11.944
					c-3.671-19.113-40.693-3.796-50.493-21.313C193.917,316.997,176.467,300.017,200.014,301.883z"/>
				<path style="fill-rule:evenodd;clip-rule:evenodd;" d="M170.201,463.388c14.169-11.166,56.152-3.348,45.369,13.697
					c-10.783,17.045,26.717,45.374,48.464,39.081c8.989-2.601-18.731,16.39-25.243,36.577c-4.302,13.338,7.781,29.592,20.445,30.914
					c41.428,4.325-2.877,54.127-28.807,19.178c-11.813-15.922,1.835-41.17-12.946-50.888c-14.781-9.718-47.962-12.056-40.457-35.066
					C184.533,493.872,149.04,480.066,170.201,463.388z"/>
				<path style="fill-rule:evenodd;clip-rule:evenodd;" d="M145.52,164.89c17.841-3.66,46.665,6.454,51.711,25.822
					c5.046,19.366,51.247,28.01,35.832,52.191c-15.416,24.182-33.968-23.206-59.837-25.256
					C147.357,215.598,114.348,171.282,145.52,164.89z"/>
				<path style="fill-rule:evenodd;clip-rule:evenodd;" d="M254.558,445.977c-4.594,15.973,4.734,27.293,22.176,19.42
					c17.442-7.872,19.967-34.679,1.364-31.259C259.496,437.559,258.426,432.528,254.558,445.977z"/>
				<path style="fill-rule:evenodd;clip-rule:evenodd;" d="M269.752,615.561c15.301,1.784,20.439,16.772,1.319,18.941
					C251.951,636.672,247.285,612.943,269.752,615.561z"/>
				<path style="fill-rule:evenodd;clip-rule:evenodd;" d="M156.77,515.482c6.438,0.511,8.111,9.003-0.085,10.908
					C148.489,528.296,147.315,514.733,156.77,515.482z"/>
				<path style="fill-rule:evenodd;clip-rule:evenodd;" d="M168.677,549.19c11.024,0.739,13.614,16.507-0.503,20.326
					C154.056,573.337,152.488,548.105,168.677,549.19z"/>
				<path style="fill-rule:evenodd;clip-rule:evenodd;" d="M194.923,585.636c8.409,2.607,5.294,18.363-7.03,19.656
					C175.568,606.587,182.575,581.81,194.923,585.636z"/>
				<path style="fill-rule:evenodd;clip-rule:evenodd;fill:#1C0100;" d="M214.872,624.786c6.682,2.069,4.206,14.589-5.586,15.617
					C199.495,641.431,205.061,621.747,214.872,624.786z"/>
				<path style="fill-rule:evenodd;clip-rule:evenodd;" d="M179.157,232.128c19.453,1.303,18.022,25.113-6.889,31.853
					C147.359,270.721,150.594,230.213,179.157,232.128z"/>
				<path style="fill-rule:evenodd;clip-rule:evenodd;fill:#FBF1D8;" d="M300.099,282.278c10.425,7.968,23.163,4.073,17.694,12.495
					c-6.977,10.743-2.014,18.375,2.241,24.918c4.255,6.542,17.502-7.388,21.947-1.746c4.204,5.336-30.746-58.325-41.883-64.412
					V282.278L300.099,282.278z M300.099,410.339v-36.697c5.857,5.143,9.256,13.472,4.664,22.723c-2.269,4.569-5.112,7.48-0.231,11.7
					C307.043,410.236,304.755,410.736,300.099,410.339L300.099,410.339z M300.099,340.345v-20.264
					c6.385,7.693,18.653,22.615,9.97,19.939C305.546,338.627,302.389,339.107,300.099,340.345z M298.426,253.066
					c-11.179-0.487-15.677-1.441-5.993,19.412c2.093,4.507,4.792,7.604,7.666,9.8v-28.745
					C299.46,253.184,298.895,253.013,298.426,253.066L298.426,253.066z M300.099,320.081v20.264
					c-6.385,3.447-6.037,12.777-9.731,3.824c-3.999-9.692-19.83-4.849-29.948-19.214c-10.118-14.364-16.373-32.645-12.805-45.05
					c1.25-14.776,36.366,19.862,49.702,36.788C297.924,317.465,298.909,318.647,300.099,320.081L300.099,320.081z M300.099,373.642
					v36.697c-7.737-0.659-22.018-3.795-31.692-5.844c-20.693-4.385-20.547-19.246-17.551-28.952
					c0.816-8.288,19.633,0.366,30.346-5.825C286.468,366.674,294.434,368.667,300.099,373.642L300.099,373.642z M200.451,364.077
					c0.313,0.076,0.648,0.178,1.006,0.308c13.26,4.813-2.016,24.709,27.348,30.929c10.797,2.288,26.244-39.564,2.607-38.932
					c-15.009,0.402-24.4-0.661-30.961-5.942V364.077L200.451,364.077z M200.451,292.287V246.84
					c4.408-3.048,7.329,9.585,16.924,11.617c11.696,2.478,19.221,6.894,17.696,14.091c-1.525,7.198-1.822,17.477-17.171,18.925
					C211.261,292.1,206.039,292.675,200.451,292.287L200.451,292.287z M200.451,180.321v-12.696
					c13.667,8.383,27.963,20.261,35.474,29.895c14.045,18.018,47.419,33.548,43.659,46.854
					c-3.758,13.306-39.672-16.865-55.325-36.163C209.023,189.428,213.546,190.86,200.451,180.321z M200.451,167.625v12.696
					c-0.36-0.289-0.731-0.586-1.117-0.894c-14.48-11.529-46.436-24.88-28.25-21.967
					C177.145,155.684,188.561,160.332,200.451,167.625L200.451,167.625z M200.451,246.84v45.447
					c-7.331-0.507-15.293-2.671-27.918-8.546c-22.249-10.353-29.722-19.457-27.243-31.154c2.478-11.696-10.941-37.102-14.243-48.143
					c-6.001-11.612,12.404,3.568,21.158,11.064c8.754,7.495,5.102,11.422,1.914,22.028c-3.186,10.605-5.093,19.602,4.888,30.179
					c9.982,10.575,31.598-2.707,38.245-16.341C198.447,248.925,199.484,247.508,200.451,246.84L200.451,246.84z M200.451,350.439
					v13.638c-9.833-2.386,0.605,20.501-31.631,8.189c-11.935-4.56-14.762-50.133-7.975-59.977
					c10.957-11.78,23.91,6.945,30.567,24.338C193.843,342.975,196.68,347.403,200.451,350.439z"/>
				<path style="fill-rule:evenodd;clip-rule:evenodd;fill:#FBF1D8;" d="M163.802,489.448c-7.563,0.994-18.198,2.2-16.382-4.335
					c1.817-6.534,5.063-21.85,20.148-27.735c15.087-5.887,46.302-14.41,58.856-16.508c12.554-2.098,30.45-6.957,26.89-0.358
					c-3.561,6.598,1.357,11.965-13.967,16.935c-15.326,4.971-19.465,4.094-28.308,0.923c-8.843-3.171-27.995-4.634-38.091,0.147
					c-10.095,4.781-16.553,10.766-13.076,18.854C163.349,485.46,169.859,489.434,163.802,489.448z"/>
				<path style="fill-rule:evenodd;clip-rule:evenodd;fill:#FBF1D8;" d="M287.276,431.271c2.069,0.438,6.31,6.959,5.434,11.099
					c-0.877,4.14,9.018,2.344,14.575,2.655c5.556,0.313,9.87,0.361,11.098-5.434c1.228-5.795,1.39-12.681,1.326-14.424
					c-0.064-1.743-9.656,2.712-16.63,2.965C296.105,428.385,282.723,430.308,287.276,431.271z"/>
				<path style="fill-rule:evenodd;clip-rule:evenodd;fill:#FBF1D8;" d="M170.176,498.151c-5.191,4.09-16.641,11.18-20.854,16.775
					c-4.213,5.595,0.414,0.088,8.151-1.733c7.738-1.82,9.271,9.316,5.497,12.842c-3.774,3.525,4.178,4.777,8.342,3.497
					c4.163-1.28,3.473-6.184,4.023-10.825C175.886,514.065,175.094,503.518,170.176,498.151z"/>
				<path style="fill-rule:evenodd;clip-rule:evenodd;fill:#FBF1D8;" d="M219.648,474.898c-1.881,4.791-1.993,7.362-1.39,12.681
					c0.605,5.317,3.841,12.49,14.964,4.899c11.123-7.59,29.195-13.276,41.598-16.704c12.404-3.427,33.763-6.254,36.66-5.641
					c2.897,0.614-1.081-7.148-0.029-12.115c1.053-4.968,3.021-10.173,3.021-10.173s-15.038,1.572-19.879,4.006
					c-4.841,2.435-10.394,16.395-19.285,17.538c-8.893,1.145-15.802,3.141-19.24-1.048
					C252.631,464.153,236.566,468.535,219.648,474.898z"/>
				<path style="fill-rule:evenodd;clip-rule:evenodd;fill:#FBF1D8;" d="M160.313,577.37c-4.968-1.053-8.381-7.398-7.566-13.28
					c0.814-5.883,1.715-12.179,12.9-18.026c11.186-5.848,13.87-8.307,13.87-8.307s11.54,6.771,16.093,7.734
					c4.554,0.965,1.193,4.577-4.563,7.251c-5.756,2.673-9.969,8.268-12.555,2.098c-2.584-6.17-7.051-7.549-11.452-7.184
					c-4.402,0.364-11.6,5.76-12.112,14.301C154.416,570.498,167.373,576.703,160.313,577.37z"/>
				<path style="fill-rule:evenodd;clip-rule:evenodd;fill:#FBF1D8;" d="M237.779,507.716c3.639,1.203,19.932,5.953,27.519,2.803
					c7.587-3.149,31.94-13.992,36.081-13.115c4.139,0.877,6.86,2.318-2.52,9.846c-9.379,7.528-35.189,15.035-41.496,22.349
					c-6.307,7.313-13.929,20.835-15.156,26.63c-1.228,5.795,14.57-11.617,21.141-20.173c6.57-8.556,4.111-11.238,12.502-12.056
					c8.39-0.817,19.124-10.653,24.904-15.483c5.78-4.83,11.561-9.66,17.819-12.659c6.257-2.999,15.15-4.143,8.337-10.775
					c-6.812-6.634-11.866-7.272-20.87-3.558C297.035,485.238,257.693,493.338,237.779,507.716z"/>
				<path style="fill-rule:evenodd;clip-rule:evenodd;fill:#FBF1D8;" d="M213.524,560.964c-6.02,3.915-27.262,18.443-31.952,22.208
					c-4.689,3.763-8.625,14.175-7.632,21.737c0.992,7.563,7.59,11.122,13.41,10.193c5.819-0.93,5.342-2.761-2.498-6.584
					c-7.84-3.823-8.355-9.555-4.883-15.739c3.473-6.185,8.864-13.259,17.619-9.675c8.756,3.585,5.258,11.926,1.547,17.195
					c-3.711,5.268,7.801-0.078,15.486-11.857C222.308,576.665,220.073,568.839,213.524,560.964z"/>
				<path style="fill-rule:evenodd;clip-rule:evenodd;fill:#FBF1D8;" d="M321.372,505.099c-6.345,3.413-31.674,27.024-37.718,33.096
					c-6.044,6.072-0.951,10.611-9.941,20.384c-8.989,9.773-4.353-3.95-12.641,2.512c-8.289,6.461-14.245,12.119-9.542,14.413
					c4.704,2.294,2.561,8.327,10.109,1.277c7.549-7.051,26.771-26.333,39.16-35.818c12.39-9.485,17.128-17.563,24.842-17.227
					c7.713,0.337,9.671,3.346-0.035,10.372c-9.706,7.026-18.721,18.956-26.294,28.164c-7.572,9.208-18.959,18.041-16.436,22.468
					c2.521,4.426-0.361,9.87-5.013,17.535c-4.65,7.664,1.757,5.994,5.059,14.91c3.301,8.917,5.082,12.755,13.785,6.381
					c8.703-6.374,18.346-15.143,23.736-22.218c5.392-7.075-30.668-10.39-14.82-32.117c15.848-21.727,13.467,34.425,23.484,21.843
					c10.018-12.582,21.376-33.53,26.329-38.536c4.952-5.006,7.285-5.81-3.126-9.745c-10.41-3.936-15.29-5.401-17.976-17.216
					C331.646,513.763,335.379,492.064,321.372,505.099z"/>
				<path style="fill-rule:evenodd;clip-rule:evenodd;fill:#FBF1D8;" d="M250.504,629.347c-3.322,7.514-5.904,15.617,2.662,13.972
					c8.565-1.646,16.304-3.467,9.355-5.371C255.572,636.043,249.359,620.454,250.504,629.347z"/>
				<path style="fill-rule:evenodd;clip-rule:evenodd;fill:#FBF1D8;" d="M223.186,607.558c-3.407,2.513-14.121,10.666-9.02,13.658
					c6.385,0.488,5.521,10.685,7.791,8.139c2.27-2.547,6.469-14.2,9.479-16.157C234.445,611.24,225.588,602.011,223.186,607.558z"/>
				<path style="fill-rule:evenodd;clip-rule:evenodd;fill:#2E2824;" d="M366.895,364.283
					c-7.399-13.591-28.227-45.233-30.616-30.319c-2.389,14.914-0.149,26.183,6.109,22.111c6.26-4.07,8.698,2.613,13.508,9.029
					c4.809,6.416,2.107,22.806-5.922,13.395c-8.029-9.41-22.655-24.074-26.901-14.951c-4.247,9.124,0.632,22.493,16.864,25.933
					c16.234,3.44,31.26,8.935,34.818,21.254C378.314,423.054,384.404,396.446,366.895,364.283z"/>
				<path style="fill-rule:evenodd;clip-rule:evenodd;fill:#2E2824;" d="M326.887,399.836c-1.189,10.476-1.318,25.131,8.412,21.261
					c9.73-3.871,22.149-10.962,29.215-0.813c7.064,10.149-1.038,23.656-9.188,15.564c-8.148-8.091-29.696-3.926-25.639,14.765
					c4.057,18.69,13.911,28.727,16.958,16.339c3.048-12.388,16.269-20.059,24.176-14.339c7.907,5.722-3.361,43.154-9.018,51.07
					c-5.656,7.916-20.006-3.951-15.909,10.894c4.096,14.845,15.814,11.443,23.613-11.388c7.801-22.83,13.935-51.451,10.118-67.772
					c-3.816-16.321-10.22-26.314-26.493-31.697C336.858,398.335,327.751,392.204,326.887,399.836z"/>
				<path style="fill-rule:evenodd;clip-rule:evenodd;fill:#2E2824;" d="M96.04,116.795c15.065-5.144,43.049-4.415,48.568,4.415
					c5.52,8.83-9.935,17.662-11.038,28.699c-1.105,11.039,18.766,34.219,33.114,34.219c14.35,0,17.661,29.803-2.207,17.661
					c-19.869-12.142-11.038-17.661-27.596-27.596c-16.558-9.935-24.284,8.831-32.011-4.415c-7.727-13.246,3.311-7.727,3.311-22.076
					C108.182,133.352,65.105,127.358,96.04,116.795z"/>
				<path style="fill-rule:evenodd;clip-rule:evenodd;fill:#2E2824;" d="M172.203,240.423c10.972,1.219,11.039,13.246-3.311,13.246
					C154.543,253.669,163.157,239.418,172.203,240.423z"/>
				<path style="fill-rule:evenodd;clip-rule:evenodd;fill:#2E2824;" d="M135.754,288.053c9.998,2.381,20.317,9.378,8.596,21.1
					c-11.723,11.723-10.159,30.478-1.563,42.98c8.597,12.503,15.63,30.478,1.563,26.57c-14.066-3.908-15.629-14.066-17.191-23.444
					c-1.563-9.378,10.158-3.125,9.377-12.503c-0.781-9.378-10.941-21.1-9.377-32.822
					C128.721,298.212,127.672,286.129,135.754,288.053z"/>
				<path style="fill-rule:evenodd;clip-rule:evenodd;fill:#2E2824;" d="M181.859,467.79c12.504-0.782,21.882-0.001,21.882,10.94
					c0,10.94-0.001,20.317,10.94,28.132c10.939,7.815,17.973,14.067,15.629,21.882c-2.345,7.815-17.974,13.285-32.821,1.563
					c-14.849-11.722,21.881,4.688,13.284-10.94c-8.596-15.629-24.225,3.907-26.569-13.285
					C181.859,488.89,159.979,467.008,181.859,467.79z"/>
				<path style="fill-rule:evenodd;clip-rule:evenodd;fill:#2E2824;" d="M234.218,572.506c0,7.815,4.689,33.604,20.318,32.821
					c15.63-0.781,14.066-10.159-0.782-14.848C238.906,585.79,230.311,560.784,234.218,572.506z"/>
				<path style="fill-rule:evenodd;clip-rule:evenodd;fill:#2E2824;" d="M261.39,441.116c5.615,0,4.412,12.835,12.033,12.835
					c7.62,0,0.802-14.038,8.021-14.038c7.221,0,4.412,24.467-12.835,24.066C251.361,463.578,256.176,439.913,261.39,441.116z"/>
				<path style="fill-rule:evenodd;clip-rule:evenodd;fill:#2E2824;" d="M155.374,518.202c3.929,0.311,4.948,5.493-0.052,6.656
					C150.321,526.021,149.605,517.745,155.374,518.202z"/>
				<path style="fill-rule:evenodd;clip-rule:evenodd;fill:#2E2824;" d="M167.205,556.649c6.058,0.48,7.632,8.471-0.08,10.264
					C159.414,568.706,158.31,555.944,167.205,556.649z"/>
				<path style="fill-rule:evenodd;clip-rule:evenodd;fill:#2E2824;" d="M192.876,587.124c6.058,0.314,7.632,5.53-0.08,6.701
					C185.085,594.995,183.98,586.664,192.876,587.124z"/>
				<path style="fill-rule:evenodd;clip-rule:evenodd;fill:#292929;" d="M208.641,628.438c3.077,0.313,3.877,5.53-0.041,6.701
					C204.684,636.309,204.123,627.977,208.641,628.438z"/>
				<path style="fill-rule:evenodd;clip-rule:evenodd;fill:#2E2824;" d="M271.994,619.624c8.304,0.498,10.461,8.777-0.109,10.635
					C261.314,632.117,259.801,618.893,271.994,619.624z"/>
				<path style="fill-rule:evenodd;clip-rule:evenodd;fill:#2E2824;" d="M140.283,462.102c-12.91,15.257-15.257,18.777-12.91,28.753
					c2.348,9.976-1.76,26.406,2.348,32.86c4.107,6.455,7.628,16.431,14.083,15.257c6.454-1.174-7.628-5.281-7.042-19.951
					c0.587-14.67,0-26.405,3.521-36.381C143.804,472.664,150.846,452.126,140.283,462.102z"/>
				<path style="fill-rule:evenodd;clip-rule:evenodd;fill:#2E2824;" d="M219.5,656.331c8.863-4.835,26.406-2.348,34.621-1.174
					c8.215,1.174,35.795-9.976,24.059-1.174c-11.736,8.802-32.425,18.479-38.142,12.322
					C232.409,658.092,208.881,662.123,219.5,656.331z"/>
			</g>
		</g>
		<g>
			<path style="fill-rule:evenodd;clip-rule:evenodd;" d="M392.32,377.162c-3.289,2.231-6.865,7.878-6.821,20.1
				c0.051,14.357,7.692,28.254,7.405,30.78c-0.924,8.085-8.098,16.523-10.688,30.023c-1.674,8.724,11.343,47.678,12.19,67.666
				c0.747,17.607-5.825,56.014,5.983,56.014s3.314-38.035,4.383-56.083c1.62-27.382,14.53-59.259,12.932-67.597
				c-2.681-13.983-9.769-21.939-10.688-30.023c-0.249-2.193,6.514-15.485,7.025-29.694c0.406-11.313-3.773-18.623-6.33-20.878
				c11.203-6.125,8.027-22.735-8.076-23.26C383.867,353.695,381.064,370.981,392.32,377.162z"/>
			<path d="M399.96,367.537c-0.3,0.184-0.653,0.292-1.031,0.295c-1.106,0.009-2.01-0.881-2.018-1.987
				c-0.121-12.555-7.064-25.278-16.402-37.016c-8.435-10.6-19.301-20.258-21.08-31.42c-0.174-1.094,0.572-2.12,1.664-2.294
				c1.094-0.173,2.12,0.573,2.294,1.665c1.612,10.109,9.601,20.148,17.708,30.338c8.015,10.074,16.143,20.29,18.866,31.349
				c2.725-11.058,10.852-21.273,18.867-31.348c8.108-10.188,16.097-20.229,17.708-30.339c0.173-1.092,1.2-1.838,2.293-1.665
				c1.093,0.174,1.839,1.2,1.665,2.294c-1.779,11.163-15.006,23.181-23.44,33.78c-9.339,11.736-13.922,22.101-14.043,34.655
				c-0.009,1.106-0.912,1.996-2.018,1.987C400.613,367.829,400.261,367.721,399.96,367.537z"/>
		</g>
	</g>
</g>
</svg>
